<svg width="22" height="22" viewBox="0 0 24 24" fill="none" xmlns="http://www.w3.org/2000/svg">
<path opacity="0.4" d="M21.0409 7.19L12.0009 12.42L2.96094 7.19C3.36094 6.45 3.94094 5.8 4.59094 5.44L9.93094 2.48C11.0709 1.84 12.9309 1.84 14.0709 2.48L19.4109 5.44C20.0609 5.8 20.6409 6.45 21.0409 7.19Z" fill="#3454A4"/>
<path opacity="0.6" d="M12.0006 12.42V22C11.2506 22 10.5006 21.84 9.93062 21.52L4.59063 18.56C3.38063 17.89 2.39062 16.21 2.39062 14.83V9.17C2.39062 8.53 2.61062 7.83 2.96062 7.19L12.0006 12.42Z" fill="#3454A4"/>
<path d="M21.61 9.17V14.83C21.61 16.21 20.62 17.89 19.41 18.56L14.07 21.52C13.5 21.84 12.75 22 12 22V12.42L21.04 7.19C21.39 7.83 21.61 8.53 21.61 9.17Z" fill="#3454A4"/>
<path d="M7.5 4L16.5 10V13.5" stroke="#273f7b" stroke-width="1.5" stroke-linecap="round"/>
</svg>
