<svg width="22" height="22" viewBox="0 0 24 24" fill="none" xmlns="http://www.w3.org/2000/svg">
<path opacity="0.4" d="M17.9981 7.16C17.9381 7.15 17.8681 7.15 17.8081 7.16C16.4281 7.11 15.3281 5.98 15.3281 4.58C15.3281 3.15 16.4781 2 17.9081 2C19.3381 2 20.4881 3.16 20.4881 4.58C20.4781 5.98 19.3781 7.11 17.9981 7.16Z" stroke="#252424" stroke-width="1.5" stroke-linecap="round" stroke-linejoin="round"/>
<path opacity="0.4" d="M16.9675 14.44C18.3375 14.67 19.8475 14.43 20.9075 13.72C22.3175 12.78 22.3175 11.24 20.9075 10.3C19.8375 9.59004 18.3075 9.35003 16.9375 9.59003" stroke="#252424" stroke-width="1.5" stroke-linecap="round" stroke-linejoin="round"/>
<path opacity="0.4" d="M5.96656 7.16C6.02656 7.15 6.09656 7.15 6.15656 7.16C7.53656 7.11 8.63656 5.98 8.63656 4.58C8.63656 3.15 7.48656 2 6.05656 2C4.62656 2 3.47656 3.16 3.47656 4.58C3.48656 5.98 4.58656 7.11 5.96656 7.16Z" stroke="#252424" stroke-width="1.5" stroke-linecap="round" stroke-linejoin="round"/>
<path opacity="0.4" d="M6.9975 14.44C5.6275 14.67 4.1175 14.43 3.0575 13.72C1.6475 12.78 1.6475 11.24 3.0575 10.3C4.1275 9.59004 5.6575 9.35003 7.0275 9.59003" stroke="#252424" stroke-width="1.5" stroke-linecap="round" stroke-linejoin="round"/>
<path d="M12.0001 14.63C11.9401 14.62 11.8701 14.62 11.8101 14.63C10.4301 14.58 9.33008 13.45 9.33008 12.05C9.33008 10.62 10.4801 9.46997 11.9101 9.46997C13.3401 9.46997 14.4901 10.63 14.4901 12.05C14.4801 13.45 13.3801 14.59 12.0001 14.63Z" stroke="#252424" stroke-width="1.5" stroke-linecap="round" stroke-linejoin="round"/>
<path d="M9.0907 17.78C7.6807 18.72 7.6807 20.26 9.0907 21.2C10.6907 22.27 13.3107 22.27 14.9107 21.2C16.3207 20.26 16.3207 18.72 14.9107 17.78C13.3207 16.72 10.6907 16.72 9.0907 17.78Z" stroke="#252424" stroke-width="1.5" stroke-linecap="round" stroke-linejoin="round"/>
</svg>
