<svg width="512" height="355" viewBox="0 0 512 355" fill="none" xmlns="http://www.w3.org/2000/svg">
<path d="M302.817 113.715C309.666 103.489 321.782 102.725 332.905 102.72L347.361 102.953C367.738 105.53 381.898 117.822 395.28 132.028L407.126 144.322C416.63 154.032 426.491 163.498 434.934 174.171C447.525 190.088 448.767 201.697 448.763 220.736C448.76 234.237 450.02 246.982 438.036 256.257C432.054 260.887 424.874 261.686 417.553 261.585C417.094 261.578 416.738 261.358 416.667 261.829C407.083 325.61 332.8 316.666 326.948 262.581L271.146 262.273L263.823 262.278L262.25 261.906C262.852 261.411 263.892 261.204 264.628 260.952L269.844 259.151C270.207 258.668 273.01 257.748 273.743 257.396C289.864 249.654 300.64 232.524 302.611 215.001C303.228 209.513 302.86 203.675 302.861 198.139L302.852 174.11L302.817 113.715ZM360.234 131.826C347.344 133.734 349.022 143.726 349.013 153.578C349.001 166.319 348.092 177.666 363.37 182.348C366.512 183.31 371.052 182.783 374.369 182.791L393.235 182.913C399.723 182.411 405.928 176.758 404.042 169.75L403.948 169.388C402.27 163.391 387.284 150.967 382.568 146.398C376.039 140.071 370.423 131.311 360.234 131.826Z" fill="#2A4383"/>
<path d="M96.4078 95.892L104.659 95.804C107.632 83.612 115.904 72.5824 126.614 66.0592C141.044 57.272 157.003 57.996 173.245 57.9872L238.517 57.9424C247.657 57.9256 257.378 57.1216 266.317 59.332C288.098 64.72 302.153 81.8704 302.251 104.193C302.265 107.211 301.973 110.798 302.819 113.715L302.858 174.11L302.86 198.139C302.859 203.675 303.227 209.513 302.609 215.001C300.639 232.524 289.862 249.654 273.741 257.396C273.009 257.748 270.205 258.668 269.843 259.151L264.626 260.952C263.891 261.204 262.85 261.411 262.249 261.906L263.821 262.254L233.233 261.705C233.253 264.746 233.249 267.988 232.642 271.213C226.536 303.676 184.58 318.628 160.519 294.134C154.497 288.004 147.789 276.926 147.4 267.933L146.968 264.826L146.808 263.826C146.508 262.206 144.392 263.03 143.124 262.981C134.203 262.634 124.572 259.297 117.229 254.375C99.5078 242.495 95.9862 222.915 96.0038 202.992L96.0206 175.266C96.0326 171.966 95.9846 168.44 96.623 165.198L97.0318 162.594C97.1446 161.751 97.3326 161.372 97.9278 160.767L98.099 160.599C96.2174 160.296 94.2094 160.516 92.2878 160.302L91.9726 160.265L83.8742 160.2C82.2406 160.183 80.4046 160.266 78.8201 159.877L78.499 159.791C69.1397 157.366 70.3877 144.069 80.3534 142.455C85.5998 141.642 91.0982 142.807 96.2486 142.048C95.7086 134.37 97.4886 122.189 99.1214 114.875C99.9382 114.671 100.603 114.286 100.655 113.375C99.6462 113.359 98.583 113.398 97.5966 113.17L97.1046 113.047L72.1435 112.9C70.4913 112.882 68.8513 112.955 67.3291 112.206L66.999 112.04C60.3623 108.896 60.0793 98.3208 67.3326 95.9928L67.624 95.9064C69.8686 95.2224 73.4493 95.816 75.8347 95.8272L96.4078 95.892Z" fill="#C0CAE3"/>
<path d="M97.1046 112.945L72.1435 112.9C70.4913 112.882 68.8513 112.955 67.3291 112.206L66.999 112.04C60.3623 108.896 60.0793 98.3208 67.3326 95.9928L67.624 95.9064C69.8686 95.2224 73.4493 95.816 75.8347 95.8272L96.4078 95.892L124.734 95.9384C126.59 95.9464 128.541 95.9032 130.348 96.3696L130.669 96.448C137.65 98.28 136.445 111.57 126.99 112.734C120.163 113.575 104.217 113.332 97.1046 112.945Z" fill="#2A4383"/>
<path d="M80.3535 142.455L211.837 142.076C216.441 142.077 223.666 140.91 227.819 143.411L228.167 143.616C234.797 147.645 234.334 157.474 226.749 159.767L226.353 159.892C224.585 160.403 222.605 160.239 220.776 160.23L188.076 160.18L91.9727 160.221L83.8743 160.2C82.2407 160.183 80.4047 160.266 78.8202 159.877L78.4991 159.791C69.1398 157.366 70.3877 144.069 80.3535 142.455Z" fill="url(#paint0_linear_3661_532)"/>
<path d="M179.34 220.956C204.102 214.206 230.426 232.114 232.848 257.313C232.976 258.646 232.934 260.186 233.234 261.48C233.255 264.746 233.25 267.988 232.643 271.213C226.537 303.676 184.581 318.628 160.52 294.134C154.498 288.004 147.79 276.926 147.401 267.933L146.969 264.826C146.907 245.522 160.18 225.852 179.34 220.956Z" fill="url(#paint1_linear_3661_532)"/>
<defs>
<linearGradient id="paint0_linear_3661_532" x1="192.367" y1="193.492" x2="112.388" y2="109.225" gradientUnits="userSpaceOnUse">
<stop stop-color="#2A4383"/>
<stop offset="1" stop-color="#3454A4"/>
</linearGradient>
<linearGradient id="paint1_linear_3661_532" x1="229.231" y1="280.682" x2="151.234" y2="244.989" gradientUnits="userSpaceOnUse">
<stop stop-color="#2A4383"/>
<stop offset="1" stop-color="#1C84B3"/>
</linearGradient>
</defs>
</svg>
