<svg width="22" height="22" viewBox="0 0 22 22" fill="none" xmlns="http://www.w3.org/2000/svg">
<path d="M11.0016 4.62143C12.9545 4.62143 14.2718 5.46499 15.0229 6.16988L17.958 3.3041C16.1554 1.62854 13.8096 0.600098 11.0016 0.600098C6.93405 0.600098 3.42116 2.93432 1.71094 6.33165L5.0736 8.94321C5.91716 6.43565 8.25138 4.62143 11.0016 4.62143V4.62143Z" fill="#EA4335"/>
<path d="M20.984 11.2312C20.984 10.3761 20.9147 9.75209 20.7644 9.10498H11V12.9645H16.7316C16.616 13.9236 15.992 15.3681 14.6053 16.3388L17.8871 18.881C19.8516 17.0668 20.984 14.3974 20.984 11.2312V11.2312Z" fill="#4285F4"/>
<path d="M5.08512 13.0569C4.86556 12.4098 4.73845 11.7164 4.73845 11C4.73845 10.2835 4.86556 9.59021 5.07356 8.9431L1.7109 6.33154C1.00601 7.74132 0.601562 9.32443 0.601562 11C0.601562 12.6755 1.00601 14.2587 1.7109 15.6684L5.08512 13.0569V13.0569Z" fill="#FBBC05"/>
<path d="M11.0018 21.4C13.8098 21.4 16.1671 20.4756 17.8889 18.8809L14.6071 16.3387C13.7289 16.9511 12.5502 17.3787 11.0018 17.3787C8.25154 17.3787 5.91732 15.5644 5.08532 13.0569L1.72266 15.6684C3.43288 19.0658 6.93421 21.4 11.0018 21.4V21.4Z" fill="#34A853"/>
</svg>
