<svg width="550" height="450" viewBox="0 0 550 450" fill="none" xmlns="http://www.w3.org/2000/svg">
<g clip-path="url(#clip0_195_1460)">
<rect width="550" height="450" fill="#3454A4"/>
<path d="M-78.2363 77.6963L-19.6136 17L96.0534 128.716C112.814 144.904 113.278 171.614 97.0901 188.375V188.375C80.9019 205.136 54.1915 205.6 37.4307 189.412L-78.2363 77.6963Z" fill="url(#paint0_linear_195_1460)"/>
<path d="M-97.8848 -28.667L-39.6129 -89L76.2357 22.891C92.8962 38.9823 93.3576 65.5329 77.2663 82.1934V82.1934C61.175 98.8539 34.6243 99.3153 17.9638 83.224L-97.8848 -28.667Z" fill="#273F7B"/>
<path d="M521.368 99.327C510.694 89.4667 498.433 68.3313 491.273 27.6474C490.131 21.1572 492.448 14.543 497.215 9.99264L498.484 8.78088C512.353 -4.45863 532.476 -8.80044 550.571 -2.4575L551.878 -1.99901C566.521 3.13407 577.943 14.7876 582.78 29.5309C589.447 49.8482 582.425 72.1546 565.323 84.9904L550.002 96.4896C541.138 103.142 529.509 106.847 521.368 99.327Z" fill="#273F7B"/>
<path d="M346.225 124.668L344.867 120.987C344.16 119.068 344.659 116.912 346.138 115.5C348.188 113.543 351.436 113.619 353.393 115.669L356.103 118.507C358.37 120.882 358.282 124.645 355.907 126.912C352.813 129.866 347.705 128.682 346.225 124.668Z" fill="#273F7B"/>
<path d="M327.368 12.3271C316.694 2.46681 304.433 -18.6686 297.273 -59.3525C296.131 -65.8426 298.448 -72.4569 303.215 -77.0072L304.484 -78.219C318.353 -91.4585 338.476 -95.8003 356.571 -89.4574L357.878 -88.9989C372.521 -83.8658 383.943 -72.2123 388.78 -57.469C395.447 -37.1517 388.425 -14.8453 371.323 -2.0095L356.002 9.48976C347.138 16.1425 335.509 19.8471 327.368 12.3271Z" fill="url(#paint1_linear_195_1460)"/>
<path d="M152.225 37.6685L150.867 33.987C150.16 32.0681 150.659 29.9123 152.138 28.5001C154.188 26.5433 157.436 26.6188 159.393 28.6686L162.103 31.5069C164.37 33.8818 164.282 37.6449 161.907 39.912C158.813 42.866 153.705 41.6825 152.225 37.6685Z" fill="url(#paint2_linear_195_1460)"/>
<path d="M532.379 473.459C513.18 468.077 489.746 448.486 484.212 398.204C482.464 382.325 491.339 367.472 505.015 359.215C508.003 357.411 511.187 355.952 514.505 354.868L521.891 352.453C530.799 349.541 540.337 349.139 549.458 351.293L563.285 354.558C568.732 355.844 573.97 357.962 578.482 361.274C587.766 368.089 600.229 378.935 605.512 389.5C609.218 399.385 604.251 427.621 558.612 465.771C551.197 471.97 541.686 476.067 532.379 473.459Z" fill="#273F7B"/>
<rect x="-24" y="417" width="246" height="40" rx="15" fill="url(#paint3_linear_195_1460)"/>
<rect x="-9.00391" y="297.478" width="137" height="47.1952" rx="8" transform="rotate(36.3855 -9.00391 297.478)" fill="#273F7B"/>
<path d="M359.4 425.052C346.6 424.22 321 433.044 321 475H384L377.4 433.543L359.4 425.052Z" fill="#273F7B"/>
<rect x="-36.7852" y="224.397" width="124.181" height="32.3888" rx="8" transform="rotate(36.39 -36.7852 224.397)" fill="#273F7B"/>
<circle cx="371" cy="69" r="15" fill="#2F4C94"/>
<path d="M279 329L282.368 339.365H293.266L284.449 345.771L287.817 356.135L279 349.729L270.183 356.135L273.551 345.771L264.734 339.365H275.632L279 329Z" fill="#2F4C94"/>
<path d="M230 92L233.368 102.365H244.266L235.449 108.771L238.817 119.135L230 112.729L221.183 119.135L224.551 108.771L215.734 102.365H226.632L230 92Z" fill="#2F4C94"/>
<path d="M431.768 153C432.538 151.667 434.462 151.667 435.232 153L448.655 176.25C449.425 177.583 448.463 179.25 446.923 179.25H420.077C418.537 179.25 417.575 177.583 418.345 176.25L431.768 153Z" fill="url(#paint4_linear_195_1460)"/>
<path d="M473 371L494 385.5V378L476 366L473 371Z" fill="#273F7B"/>
</g>
<defs>
<linearGradient id="paint0_linear_195_1460" x1="53.3939" y1="87.5135" x2="-5.22877" y2="148.21" gradientUnits="userSpaceOnUse">
<stop stop-color="#273F7B"/>
<stop offset="1" stop-color="#4773E1"/>
</linearGradient>
<linearGradient id="paint1_linear_195_1460" x1="235.779" y1="-51.3427" x2="327.96" y2="45.2227" gradientUnits="userSpaceOnUse">
<stop stop-color="#273F7B"/>
<stop offset="1" stop-color="#4773E1"/>
</linearGradient>
<linearGradient id="paint2_linear_195_1460" x1="235.779" y1="-51.3427" x2="327.96" y2="45.2227" gradientUnits="userSpaceOnUse">
<stop stop-color="#273F7B"/>
<stop offset="1" stop-color="#4773E1"/>
</linearGradient>
<linearGradient id="paint3_linear_195_1460" x1="-24" y1="437" x2="222" y2="437" gradientUnits="userSpaceOnUse">
<stop stop-color="#273F7B"/>
<stop offset="1" stop-color="#4773E1"/>
</linearGradient>
<linearGradient id="paint4_linear_195_1460" x1="433.5" y1="150" x2="433.5" y2="189" gradientUnits="userSpaceOnUse">
<stop stop-color="#2F4C94"/>
<stop offset="1" stop-color="#0F182E" stop-opacity="0.9"/>
</linearGradient>
<clipPath id="clip0_195_1460">
<rect width="550" height="450" fill="white"/>
</clipPath>
</defs>
</svg>
