<svg width="55" height="48" viewBox="0 0 55 48" fill="none" xmlns="http://www.w3.org/2000/svg">
<path d="M26.0964 45.8657C37.2536 45.8657 46.2983 36.821 46.2983 25.6638C46.2983 14.5067 37.2536 5.46198 26.0964 5.46198C14.9392 5.46198 5.89453 14.5067 5.89453 25.6638C5.89453 36.821 14.9392 45.8657 26.0964 45.8657Z" fill="url(#paint0_radial_1207_9714)"/>
<g style="mix-blend-mode:soft-light">
<path d="M26.0964 45.8657C37.2536 45.8657 46.2983 36.821 46.2983 25.6638C46.2983 14.5067 37.2536 5.46198 26.0964 5.46198C14.9392 5.46198 5.89453 14.5067 5.89453 25.6638C5.89453 36.821 14.9392 45.8657 26.0964 45.8657Z" fill="url(#paint1_radial_1207_9714)"/>
</g>
<g style="mix-blend-mode:soft-light">
<path d="M26.0964 45.8657C37.2536 45.8657 46.2983 36.821 46.2983 25.6638C46.2983 14.5067 37.2536 5.46198 26.0964 5.46198C14.9392 5.46198 5.89453 14.5067 5.89453 25.6638C5.89453 36.821 14.9392 45.8657 26.0964 45.8657Z" fill="url(#paint2_radial_1207_9714)"/>
</g>
<g style="mix-blend-mode:overlay">
<path d="M26.0964 45.8657C37.2536 45.8657 46.2983 36.821 46.2983 25.6638C46.2983 14.5067 37.2536 5.46198 26.0964 5.46198C14.9392 5.46198 5.89453 14.5067 5.89453 25.6638C5.89453 36.821 14.9392 45.8657 26.0964 45.8657Z" fill="url(#paint3_radial_1207_9714)" fill-opacity="0.7"/>
</g>
<mask id="mask0_1207_9714" style="mask-type:alpha" maskUnits="userSpaceOnUse" x="5" y="5" width="42" height="41">
<path d="M26.0964 45.8657C37.2536 45.8657 46.2983 36.821 46.2983 25.6638C46.2983 14.5067 37.2536 5.46198 26.0964 5.46198C14.9392 5.46198 5.89453 14.5067 5.89453 25.6638C5.89453 36.821 14.9392 45.8657 26.0964 45.8657Z" fill="white"/>
</mask>
<g mask="url(#mask0_1207_9714)">
<g filter="url(#filter0_f_1207_9714)">
<path d="M5.77896 25.0878C5.8009 24.8008 5.89536 24.772 5.92291 25.0635C5.95352 25.3873 5.89402 26.0383 5.90834 26.431C5.94627 27.4708 6.10566 28.3749 6.26997 29.1103C6.79947 31.48 7.53275 33.0071 8.21668 34.3009C10.4648 38.5537 12.9275 40.7072 15.3299 42.3302C18.8514 44.7093 22.4015 45.466 25.9545 45.6265C26.0442 45.6306 26.0591 46.2144 25.9709 46.2904C25.8119 46.4274 25.615 46.2914 25.4523 46.2857C24.9849 46.2693 24.5176 46.2372 24.0502 46.1887C22.6645 46.0447 21.2789 45.7514 19.8961 45.2796C16.1362 43.9968 12.0823 41.8003 8.54188 35.6137C8.31916 35.2245 8.0982 34.8148 7.88037 34.3745C7.70617 34.0223 7.53366 33.6532 7.36419 33.2584C6.80677 31.96 5.5078 28.636 5.77896 25.0878ZM25.957 46.2966C25.8715 46.2993 25.8499 45.7551 25.9314 45.6421C26.0545 45.4713 26.2392 45.6119 26.369 45.6038C26.9083 45.5701 27.4475 45.5201 27.9866 45.4524C29.4646 45.2668 30.9416 44.9499 32.4152 44.4619C36.0703 43.2515 39.9998 41.4062 43.4454 35.7368C43.6647 35.3759 43.8821 34.9932 44.0966 34.5817C44.7483 33.3312 46.3818 30.0119 46.193 25.8854C46.1771 25.5376 46.283 25.3292 46.3304 25.6277C46.3907 26.0076 46.3662 26.7997 46.3496 27.2212C46.2964 28.5711 46.0891 29.7126 45.8705 30.6345C45.1778 33.5562 44.2052 35.2503 43.3146 36.6647C40.4198 41.2622 37.2757 43.1157 34.219 44.4475C31.4773 45.6421 28.7148 46.2115 25.957 46.2966Z" fill="#401C02"/>
</g>
<g filter="url(#filter1_f_1207_9714)">
<path d="M5.77896 25.0878C5.8009 24.8008 5.89536 24.772 5.92291 25.0635C5.95352 25.3873 5.89402 26.0383 5.90834 26.431C5.94627 27.4708 6.10566 28.3749 6.26997 29.1103C6.79947 31.48 7.53275 33.0071 8.21668 34.3009C10.4648 38.5537 12.9275 40.7072 15.3299 42.3302C18.8514 44.7093 22.4015 45.466 25.9545 45.6265C26.0442 45.6306 26.0591 46.2144 25.9709 46.2904C25.8119 46.4274 25.615 46.2914 25.4523 46.2857C24.9849 46.2693 24.5176 46.2372 24.0502 46.1887C22.6645 46.0447 21.2789 45.7514 19.8961 45.2796C16.1362 43.9968 12.0823 41.8003 8.54188 35.6137C8.31916 35.2245 8.0982 34.8148 7.88037 34.3745C7.70617 34.0223 7.53366 33.6532 7.36419 33.2584C6.80677 31.96 5.5078 28.636 5.77896 25.0878ZM25.957 46.2966C25.8715 46.2993 25.8499 45.7551 25.9314 45.6421C26.0545 45.4713 26.2392 45.6119 26.369 45.6038C26.9083 45.5701 27.4475 45.5201 27.9866 45.4524C29.4646 45.2668 30.9416 44.9499 32.4152 44.4619C36.0703 43.2515 39.9998 41.4062 43.4454 35.7368C43.6647 35.3759 43.8821 34.9932 44.0966 34.5817C44.7483 33.3312 46.3818 30.0119 46.193 25.8854C46.1771 25.5376 46.283 25.3292 46.3304 25.6277C46.3907 26.0076 46.3662 26.7997 46.3496 27.2212C46.2964 28.5711 46.0891 29.7126 45.8705 30.6345C45.1778 33.5562 44.2052 35.2503 43.3146 36.6647C40.4198 41.2622 37.2757 43.1157 34.219 44.4475C31.4773 45.6421 28.7148 46.2115 25.957 46.2966Z" fill="#401C02"/>
</g>
</g>
<g filter="url(#filter2_f_1207_9714)">
<circle cx="31.528" cy="35.0297" r="4.18813" fill="#E66200" fill-opacity="0.75"/>
</g>
<path d="M31.4045 32.5667C31.3961 32.5416 31.3794 32.5164 31.371 32.4913L31.3375 32.4327C31.3208 32.4076 31.3124 32.3824 31.2956 32.3657L31.2873 32.3573C31.2789 32.3405 31.2621 32.3238 31.2537 32.307C31.1532 32.1814 31.0443 32.0641 30.9271 31.9552C30.7177 31.7793 30.4915 31.6202 30.257 31.4778C29.8214 31.2181 29.3607 30.992 28.8916 30.7993C28.6571 30.7072 28.4226 30.615 28.188 30.5313L28.1126 30.5061C28.0205 30.4726 27.9284 30.4391 27.8362 30.414C27.719 30.3721 27.6017 30.3386 27.4761 30.3051C27.1996 30.2214 26.9651 30.1627 26.7473 30.1125C26.5547 30.0706 26.4039 30.0371 26.2615 30.0036C26.2112 29.9952 26.161 30.0036 26.1191 30.0287C26.0772 30.0538 26.0437 30.0873 26.0186 30.1376C26.0018 30.1795 26.0018 30.2297 26.0102 30.28C26.027 30.3302 26.0605 30.3637 26.1023 30.3889C26.2364 30.4726 26.3704 30.5564 26.5128 30.6402C26.6971 30.7491 26.8813 30.8579 27.0656 30.9668L28.3723 31.7291C28.7744 31.972 29.1764 32.2065 29.5366 32.4578C29.7041 32.5751 29.8633 32.7007 30.0141 32.8347C30.0559 32.8682 30.0894 32.9101 30.1313 32.952L30.1397 32.9688L30.1313 32.9771C30.0978 33.019 30.0559 33.0609 30.0141 33.1028C29.8633 33.2368 29.7041 33.3624 29.5366 33.4797C29.1597 33.7394 28.7576 33.9823 28.3723 34.2085L26.9902 35.0126C26.9483 35.0377 26.9148 35.0712 26.8897 35.1131C26.8646 35.155 26.8562 35.2052 26.8562 35.2555C26.8562 35.3057 26.873 35.356 26.8897 35.3979C26.9148 35.4398 26.9483 35.4733 26.9902 35.4984L27.2331 35.6408L28.4142 36.3276C28.766 36.5371 29.1094 36.7465 29.4277 36.9642C29.5785 37.0648 29.7125 37.1736 29.8465 37.2909C29.88 37.3244 29.9135 37.3579 29.947 37.3914C29.9135 37.4249 29.88 37.4584 29.8465 37.4919C29.7125 37.6092 29.5785 37.7181 29.4277 37.8186C29.101 38.0448 28.7492 38.2542 28.4142 38.4552L27.2666 39.1253C27.1075 39.2175 26.9483 39.3096 26.7892 39.4101C26.6719 39.4771 26.5547 39.5525 26.4374 39.6279C26.3955 39.653 26.362 39.6865 26.3536 39.7368C26.3369 39.7787 26.3369 39.8289 26.3536 39.8708C26.3704 39.9127 26.3955 39.9378 26.429 39.9629C26.4625 39.9881 26.5044 39.9964 26.5463 39.9964C26.563 39.9964 26.5714 39.9964 26.5882 39.9881C26.7138 39.9629 26.8478 39.9294 27.007 39.8959C27.1996 39.8541 27.4007 39.7954 27.6436 39.7284C27.8865 39.6614 28.0791 39.5944 28.2718 39.5274C28.4561 39.4604 28.6655 39.385 28.8916 39.2928C29.3105 39.1253 29.7041 38.9327 30.0894 38.7065C30.2989 38.5809 30.4915 38.4468 30.6758 38.2877C30.7847 38.1956 30.8768 38.095 30.969 37.9778C30.9857 37.961 30.9941 37.9443 31.0108 37.9191C31.0276 37.894 31.036 37.8856 31.0443 37.8689L31.0778 37.8102C31.0862 37.7935 31.0946 37.7684 31.1113 37.7432C31.1616 37.6343 31.1867 37.5171 31.1867 37.3914C31.1867 37.2742 31.1616 37.1485 31.1113 37.0396C31.103 37.0229 31.0946 36.9977 31.0778 36.9726L31.0443 36.914C31.0108 36.8889 31.0025 36.8721 30.9857 36.847L30.9773 36.8302C30.969 36.8135 30.9606 36.8051 30.9522 36.7883C30.8684 36.6794 30.7679 36.5706 30.659 36.4784C30.4748 36.3193 30.2821 36.1852 30.0727 36.0596C29.6874 35.8334 29.2853 35.6408 28.8749 35.4733C28.7157 35.4063 28.5566 35.3476 28.4058 35.289C28.5566 35.2304 28.7157 35.1717 28.8916 35.1047C29.3607 34.9121 29.8214 34.6943 30.2653 34.4346C30.4999 34.3006 30.726 34.1414 30.9354 33.9572C31.0611 33.8566 31.17 33.7394 31.2621 33.6054C31.2705 33.5886 31.2789 33.5802 31.2956 33.5635L31.304 33.5467C31.304 33.5384 31.3208 33.5216 31.3291 33.4965L31.371 33.4295C31.3794 33.4043 31.3961 33.3792 31.4045 33.3541C31.4548 33.2284 31.4883 33.0944 31.4883 32.9604C31.4883 32.8264 31.4632 32.6923 31.4045 32.5667Z" fill="url(#paint4_radial_1207_9714)"/>
<path d="M26.5278 40.0718C26.5446 40.0718 26.5697 40.0718 26.5864 40.0634C26.7288 40.0383 26.8629 40.0048 27.0136 39.9713C27.2063 39.9294 27.3989 39.8708 27.6586 39.8038C27.8764 39.7451 28.0607 39.6781 28.2282 39.6195L28.2868 39.5943C28.513 39.519 28.714 39.4352 28.9067 39.3598C29.3255 39.1923 29.7359 38.9913 30.1212 38.7651C30.3306 38.6395 30.5317 38.4971 30.7159 38.3379C30.8248 38.2458 30.9337 38.1369 31.0175 38.0196C31.0342 38.0029 31.0426 37.9777 31.0594 37.9526L31.0677 37.9358C31.0761 37.9191 31.0845 37.9107 31.0929 37.894L31.1264 37.8353C31.1347 37.8186 31.1515 37.7935 31.1599 37.7683C31.2185 37.6427 31.2436 37.517 31.2436 37.383C31.2436 37.249 31.2185 37.115 31.1599 36.9977L31.1515 36.9726C31.1431 36.9558 31.1347 36.9474 31.1347 36.9307L31.0929 36.8721C31.0761 36.8469 31.0677 36.8302 31.051 36.8051L31.0426 36.7883C31.0342 36.7715 31.0259 36.7548 31.0091 36.7464C30.917 36.6292 30.8164 36.5203 30.7076 36.4281C30.5233 36.269 30.3222 36.1266 30.1128 36.0009C29.7275 35.7748 29.3171 35.5737 28.8983 35.4062C28.8061 35.3643 28.7224 35.3308 28.6386 35.2973C28.7224 35.2638 28.8145 35.2303 28.915 35.1884C29.3925 34.9958 29.8532 34.7696 30.2971 34.51C30.54 34.3676 30.7662 34.2084 30.9756 34.0325C31.1012 33.9236 31.2185 33.8064 31.319 33.6723C31.3274 33.664 31.3358 33.6556 31.3442 33.6388L31.3609 33.6053C31.3777 33.5802 31.3944 33.5551 31.4028 33.5383L31.4447 33.4713C31.4614 33.4462 31.4698 33.421 31.4865 33.3875C31.5368 33.2535 31.5703 33.1111 31.5703 32.9603C31.5703 32.8096 31.5368 32.6672 31.4782 32.5332C31.4698 32.508 31.453 32.4829 31.4447 32.4578L31.4112 32.3908C31.3944 32.3656 31.3777 32.3405 31.3609 32.3154L31.3525 32.307C31.3442 32.2986 31.3358 32.2819 31.3274 32.2651L31.319 32.2567C31.2185 32.1227 31.1012 31.9971 30.9756 31.8882C30.7662 31.7123 30.5317 31.5448 30.2971 31.4024C29.8532 31.1427 29.3925 30.9165 28.915 30.7239C28.6805 30.6317 28.446 30.5396 28.2031 30.4558L28.1277 30.4307C28.0355 30.3972 27.9434 30.3637 27.8429 30.3386C27.7256 30.2967 27.6083 30.2632 27.4827 30.2297C27.223 30.1543 26.9969 30.0873 26.754 30.037C26.5613 29.9952 26.4105 29.9616 26.2681 29.9281C26.2011 29.9114 26.1341 29.9281 26.0671 29.9616C26.0085 29.9952 25.9582 30.0454 25.9331 30.1124C25.908 30.1794 25.908 30.2464 25.9247 30.3134C25.9498 30.3805 25.9917 30.4307 26.0504 30.4726C26.1844 30.5564 26.3184 30.6401 26.4608 30.7155C26.6451 30.8244 26.8293 30.9333 27.0136 31.0422L28.3203 31.8044C28.7056 32.0306 29.1161 32.2735 29.4762 32.5332C29.6438 32.6421 29.8029 32.7677 29.9453 32.9017C29.9704 32.9268 29.9956 32.9436 30.0123 32.9687C29.9872 32.9939 29.9704 33.019 29.9453 33.0357C29.7945 33.1698 29.6354 33.2954 29.4762 33.4043C29.1077 33.6556 28.7224 33.8901 28.3119 34.133L26.9299 34.9371C26.8712 34.9707 26.8293 35.0125 26.7958 35.0712C26.7623 35.1298 26.7456 35.1884 26.7456 35.2554C26.7456 35.3225 26.7623 35.3811 26.7958 35.4397C26.8293 35.4984 26.8712 35.5402 26.9299 35.5737L27.1812 35.6994L28.3622 36.3862C28.6721 36.5705 29.0407 36.7883 29.3757 37.0228C29.5181 37.1234 29.6605 37.2239 29.7862 37.3411C29.8029 37.3495 29.8113 37.3663 29.8281 37.383C29.8113 37.3998 29.8029 37.4081 29.7862 37.4249C29.6605 37.5422 29.5181 37.6511 29.3757 37.7432C29.0574 37.961 28.714 38.1704 28.3622 38.3798L27.2147 39.0499C27.0555 39.142 26.8964 39.2342 26.7372 39.3347L26.6786 39.3682C26.5781 39.4268 26.4859 39.4855 26.3854 39.5441C26.3268 39.5776 26.2849 39.6279 26.2598 39.6949C26.2346 39.7619 26.243 39.8289 26.2681 39.8875C26.2933 39.9378 26.3268 39.988 26.377 40.0215C26.4105 40.055 26.4692 40.0718 26.5278 40.0718ZM31.3274 32.6002C31.3777 32.7174 31.4028 32.8347 31.4028 32.9603C31.4028 33.086 31.3777 33.2033 31.3274 33.3205C31.319 33.3457 31.3023 33.3708 31.2939 33.3875L31.2604 33.4545C31.252 33.4797 31.2353 33.4964 31.2269 33.5132L31.2018 33.5467C31.1934 33.5551 31.1934 33.5634 31.185 33.5718C31.0929 33.6975 30.984 33.8064 30.8667 33.9069C30.6657 34.0828 30.4395 34.2335 30.205 34.3676C29.7694 34.6188 29.3171 34.845 28.848 35.0293C28.6721 35.0963 28.5214 35.1633 28.3706 35.2136L28.1528 35.2889L28.3706 35.3643C28.5214 35.4146 28.6805 35.4816 28.8397 35.5486C29.2501 35.7078 29.6521 35.9088 30.0291 36.1266C30.2301 36.2438 30.4228 36.3862 30.607 36.537C30.7076 36.6292 30.8081 36.7213 30.8835 36.8302C30.8918 36.8386 30.9002 36.8553 30.9086 36.8637L30.917 36.8804C30.9337 36.9056 30.9421 36.9223 30.9505 36.9391L30.984 37.0061C30.984 37.0145 30.9924 37.0312 31.0007 37.0396L31.0091 37.0647C31.051 37.1652 31.0761 37.2657 31.0761 37.383C31.0761 37.5003 31.051 37.6008 31.0091 37.7013C31.0007 37.7264 30.9924 37.7432 30.9756 37.7683L30.9421 37.827C30.9337 37.8353 30.9337 37.8437 30.9253 37.8521L30.9086 37.8772C30.8918 37.9023 30.8835 37.9191 30.8751 37.9275C30.7913 38.0364 30.6992 38.1369 30.5987 38.2206C30.4228 38.3714 30.2301 38.5138 30.0207 38.6311C29.6438 38.8572 29.2417 39.0499 28.8313 39.209C28.6386 39.2844 28.4376 39.3598 28.2198 39.4436L28.1612 39.4687C27.9936 39.5273 27.8177 39.586 27.6083 39.6446C27.3571 39.7116 27.156 39.7702 26.9717 39.8121C26.821 39.8456 26.6953 39.8791 26.5529 39.9043C26.5446 39.9043 26.5362 39.9043 26.5278 39.9043C26.5027 39.9043 26.4775 39.8959 26.4608 39.8875C26.444 39.8708 26.4273 39.854 26.4189 39.8289C26.4105 39.8038 26.4105 39.7786 26.4189 39.7535C26.4273 39.7284 26.444 39.7032 26.4692 39.6949C26.5697 39.6362 26.6618 39.5776 26.7623 39.519L26.821 39.4855C26.9801 39.3933 27.1393 39.2928 27.2984 39.2007L28.446 38.5306C28.7978 38.3212 29.1496 38.1117 29.4679 37.8856C29.6186 37.7851 29.761 37.6762 29.8951 37.5505C29.9286 37.517 29.9704 37.4835 29.9956 37.4416L30.0458 37.3914L29.9956 37.3328C29.9621 37.2909 29.9286 37.2574 29.8867 37.2239C29.7527 37.1066 29.6103 36.9893 29.4595 36.8888C29.1244 36.6543 28.7559 36.4365 28.4376 36.2438L27.0136 35.4146C26.9801 35.3978 26.9634 35.3727 26.9466 35.3392C26.9299 35.3057 26.9215 35.2722 26.9215 35.2387C26.9215 35.2052 26.9299 35.1717 26.9466 35.1382C26.9634 35.1047 26.9885 35.0879 27.0136 35.0628L28.3957 34.2587C28.8061 34.0158 29.1998 33.7812 29.5684 33.5216C29.7359 33.4043 29.9034 33.2786 30.0542 33.1363C30.0961 33.0944 30.138 33.0525 30.1799 33.0022L30.2301 32.9436L30.1715 32.8766C30.138 32.8347 30.0961 32.7928 30.0542 32.7509C29.9034 32.6085 29.7359 32.4829 29.5684 32.3656C29.1998 32.106 28.7894 31.8631 28.3957 31.6369L27.089 30.8747C26.9047 30.7658 26.7205 30.6569 26.5362 30.548C26.4022 30.4642 26.2681 30.3888 26.1257 30.3051C26.1006 30.2883 26.0839 30.2632 26.0755 30.2381C26.0671 30.2129 26.0671 30.1794 26.0755 30.1543C26.0839 30.1292 26.109 30.104 26.1341 30.0873C26.176 30.0873 26.2011 30.0873 26.2346 30.0873C26.377 30.1208 26.5278 30.1459 26.7121 30.1962C26.955 30.2548 27.1812 30.3134 27.4324 30.3888C27.5497 30.4223 27.667 30.4642 27.7926 30.4977C27.8848 30.5312 27.9769 30.5647 28.069 30.5899L28.1444 30.615C28.379 30.6988 28.6135 30.7825 28.848 30.883C29.3171 31.0673 29.7694 31.2935 30.205 31.5531C30.4395 31.6872 30.6573 31.8463 30.8667 32.0222C30.984 32.1227 31.0929 32.24 31.185 32.3573L31.1934 32.3656C31.2018 32.374 31.2101 32.3908 31.2185 32.3991L31.2269 32.4159C31.2353 32.4326 31.252 32.4494 31.2604 32.4745L31.2939 32.5415C31.3106 32.5583 31.319 32.575 31.3274 32.6002Z" fill="url(#paint5_linear_1207_9714)"/>
<g opacity="0.7">
<g filter="url(#filter3_f_1207_9714)">
<circle cx="37.3053" cy="26.6538" r="4.18813" fill="#E66200"/>
</g>
<g filter="url(#filter4_f_1207_9714)">
<circle cx="14.942" cy="26.6538" r="4.18813" fill="#E66200"/>
</g>
</g>
<path d="M11.0525 18.9657C11.7168 18.2905 15.8446 14.383 19.6952 17.1765C19.8214 17.2737 19.915 17.407 19.9635 17.5588C20.012 17.7105 20.0131 17.8735 19.9666 18.0258C19.9383 18.1322 19.8771 18.2269 19.7919 18.2964C19.7066 18.3659 19.6015 18.4066 19.4916 18.4128C18.2829 18.5334 16.0615 17.0626 12.5142 19.1625C12.2051 19.3505 11.9064 19.5552 11.6196 19.7756C11.4102 19.9323 11.076 20.1191 10.8733 19.9072C10.6999 19.7262 10.746 19.4883 10.8205 19.3074C10.8753 19.1797 10.9541 19.0637 11.0525 18.9657Z" fill="#42210B"/>
<path d="M41.1242 18.9657C40.4591 18.2905 36.3313 14.383 32.4816 17.1765C32.3551 17.2735 32.2614 17.4069 32.2129 17.5587C32.1644 17.7105 32.1634 17.8735 32.2102 18.0258C32.2383 18.1322 32.2994 18.227 32.3848 18.2965C32.4701 18.366 32.5752 18.4068 32.6851 18.4128C33.893 18.5334 36.1152 17.0626 39.6625 19.1625C39.9714 19.3509 40.27 19.5555 40.5571 19.7756C40.7665 19.9323 41.1007 20.1191 41.3035 19.9072C41.4768 19.7262 41.4308 19.4883 41.3554 19.3074C41.3008 19.1798 41.2223 19.0638 41.1242 18.9657Z" fill="#42210B"/>
<path d="M21.1055 26.198C20.8097 26.0294 20.4928 25.901 20.1632 25.816C18.9 25.481 17.6771 25.842 16.5756 26.4819C15.3435 27.1973 14.2303 25.2891 15.4608 24.5746C17.7542 23.2428 20.7236 23.0041 22.8788 24.7472C23.956 25.6183 22.4909 27.1168 21.4012 26.3722C21.3058 26.3081 21.2071 26.2491 21.1055 26.1955V26.198Z" fill="url(#paint6_radial_1207_9714)"/>
<path d="M21.1055 26.198C20.8097 26.0294 20.4928 25.901 20.1632 25.816C18.9 25.481 17.6771 25.842 16.5756 26.4819C15.3435 27.1973 14.2303 25.2891 15.4608 24.5746C17.7542 23.2428 20.7236 23.0041 22.8788 24.7472C23.956 25.6183 22.4909 27.1168 21.4012 26.3722C21.3058 26.3081 21.2071 26.2491 21.1055 26.1955V26.198Z" stroke="url(#paint7_linear_1207_9714)" stroke-width="0.167525" stroke-miterlimit="10"/>
<path d="M35.1023 26.198C34.8064 26.0297 34.4895 25.9013 34.16 25.816C32.8968 25.481 31.6739 25.842 30.5716 26.4819C29.3403 27.1973 28.2262 25.2891 29.4567 24.5746C31.7509 23.2428 34.7195 23.0041 36.8747 24.7472C37.9527 25.6183 36.4877 27.1168 35.3971 26.3722C35.3019 26.3083 35.2035 26.2493 35.1023 26.1955V26.198Z" fill="url(#paint8_radial_1207_9714)"/>
<path d="M35.1023 26.198C34.8064 26.0297 34.4895 25.9013 34.16 25.816C32.8968 25.481 31.6739 25.842 30.5716 26.4819C29.3403 27.1973 28.2262 25.2891 29.4567 24.5746C31.7509 23.2428 34.7195 23.0041 36.8747 24.7472C37.9527 25.6183 36.4877 27.1168 35.3971 26.3722C35.3019 26.3083 35.2035 26.2493 35.1023 26.1955V26.198Z" stroke="url(#paint9_linear_1207_9714)" stroke-width="0.167525" stroke-miterlimit="10"/>
<mask id="mask1_1207_9714" style="mask-type:alpha" maskUnits="userSpaceOnUse" x="5" y="5" width="42" height="41">
<path d="M26.0964 45.8657C37.2536 45.8657 46.2983 36.821 46.2983 25.6638C46.2983 14.5067 37.2536 5.46198 26.0964 5.46198C14.9392 5.46198 5.89453 14.5067 5.89453 25.6638C5.89453 36.821 14.9392 45.8657 26.0964 45.8657Z" fill="url(#paint10_radial_1207_9714)"/>
</mask>
<g mask="url(#mask1_1207_9714)">
<g filter="url(#filter5_f_1207_9714)">
<path d="M42.0669 37.6477L30.4805 35.2647L30.0536 37.3405L41.64 39.7234L42.0669 37.6477Z" fill="#712900"/>
</g>
</g>
<mask id="mask2_1207_9714" style="mask-type:alpha" maskUnits="userSpaceOnUse" x="26" y="21" width="29" height="20">
<path fill-rule="evenodd" clip-rule="evenodd" d="M29.114 30.9267H40.2442V21.9641H54.7351V37.9628H30.979C30.97 37.9762 30.9616 37.9881 30.9528 37.9996C30.8672 38.1122 30.7697 38.2153 30.6621 38.307C30.4791 38.4632 30.2829 38.6034 30.0758 38.7259C29.6905 38.9513 29.2887 39.1473 28.8738 39.3122C28.6501 39.4035 28.4399 39.4806 28.2556 39.5451C28.2354 39.5521 28.2151 39.5592 28.1947 39.5665C28.0279 39.6251 27.8487 39.6881 27.6316 39.7478C27.3878 39.8148 27.1851 39.8692 26.9925 39.9153C26.8358 39.9538 26.7018 39.9831 26.5737 40.0083C26.5601 40.0109 26.5464 40.0123 26.5326 40.0124C26.4916 40.0125 26.4516 40.0002 26.4177 39.9772C26.3838 39.9542 26.3576 39.9215 26.3425 39.8835C26.3251 39.8399 26.324 39.7915 26.3394 39.7472C26.3548 39.7029 26.3856 39.6657 26.4262 39.6422C26.5249 39.5809 26.6248 39.5208 26.7243 39.4608C26.7431 39.4495 26.7618 39.4382 26.7806 39.4269C26.9397 39.3306 27.1005 39.2368 27.2605 39.1438L28.4089 38.4737C28.7456 38.2744 29.1025 38.0608 29.4266 37.8355C29.5738 37.7363 29.7137 37.6269 29.8454 37.5079C29.8795 37.4765 29.912 37.4432 29.9426 37.4083C29.9125 37.3727 29.88 37.3391 29.8454 37.3078C29.7138 37.1887 29.5739 37.0792 29.4266 36.9802C29.1083 36.7608 28.764 36.5514 28.4089 36.342L27.2278 35.6543L26.9874 35.5127C26.9454 35.4881 26.9105 35.453 26.8863 35.4107C26.862 35.3685 26.8493 35.3206 26.8493 35.2719C26.8493 35.2232 26.862 35.1753 26.8863 35.1331C26.9105 35.0908 26.9454 35.0557 26.9874 35.0311L28.3704 34.2261C28.7548 33.9983 29.1611 33.7554 29.5355 33.4957C29.704 33.3813 29.8644 33.2554 30.0155 33.1188C30.0575 33.0804 30.097 33.0393 30.1336 32.9957L30.1403 32.9881L30.1294 32.9755C30.0941 32.9339 30.056 32.8948 30.0155 32.8583C29.864 32.7215 29.7034 32.5953 29.5347 32.4805C29.1703 32.2284 28.7758 31.9913 28.3695 31.7509L27.0603 30.9887C26.8769 30.8815 26.6934 30.7734 26.51 30.6629C26.3743 30.5819 26.2386 30.4995 26.1029 30.4158C26.0611 30.3909 26.0297 30.3518 26.0143 30.3057C25.9989 30.2596 26.0006 30.2094 26.0191 30.1645C26.0377 30.1184 26.0719 30.0802 26.1156 30.0567C26.1594 30.0331 26.21 30.0256 26.2587 30.0355C26.4003 30.0623 26.5502 30.095 26.742 30.141C26.9581 30.1921 27.1893 30.2524 27.4699 30.3362C27.5905 30.3722 27.7095 30.4091 27.8284 30.4476C27.9222 30.4769 28.0151 30.5087 28.108 30.5405L28.1082 30.5406L28.1836 30.5665C28.4189 30.6478 28.656 30.7374 28.8889 30.8329C28.9643 30.8633 29.0393 30.8945 29.114 30.9267Z" fill="white"/>
</mask>
<g mask="url(#mask2_1207_9714)">
<path d="M54.2072 29.0727C54.2072 29.1824 54.2013 29.2913 54.1979 29.4002C54.1964 29.6187 54.181 29.8369 54.1519 30.0535C54.0508 30.9278 53.7901 31.7761 53.3829 32.5564C52.8677 33.5371 52.1387 34.3895 51.2498 35.0508C50.361 35.712 49.3349 36.1652 48.2475 36.3768C47.8109 36.4613 47.3678 36.5082 46.9232 36.5166H37.6875V34.3975H46.9232C48.2136 34.4106 49.4655 33.9583 50.4496 33.1234C50.9433 32.7054 51.3585 32.2028 51.6759 31.6391C51.9916 31.0722 52.1998 30.4517 52.2898 29.8089C52.3859 29.1707 52.3594 28.52 52.2119 27.8916C52.0598 27.2657 51.7832 26.6769 51.3986 26.1602C51.0107 25.6372 50.5216 25.1976 49.9604 24.8673C49.3993 24.5371 48.7774 24.323 48.1319 24.2379C47.4892 24.1434 46.8336 24.194 46.213 24.3861C45.5925 24.5782 45.0229 24.9067 44.546 25.3477C43.5718 26.2138 43.0483 27.554 43.1321 28.8607C43.1775 29.5109 43.3832 30.1397 43.731 30.691C44.0854 31.2441 44.5678 31.7038 45.1373 32.0312C45.7166 32.3501 46.3635 32.5264 47.0245 32.5455C47.1083 32.5455 47.1879 32.5388 47.2691 32.5379C47.3505 32.5383 47.4317 32.5318 47.512 32.5187L47.7549 32.486L47.992 32.429L48.1109 32.4014L48.2265 32.3595C48.3027 32.331 48.3806 32.3084 48.4569 32.2757C48.607 32.211 48.753 32.1371 48.8941 32.0546C49.0364 31.9723 49.1733 31.8808 49.3037 31.7807C49.369 31.7313 49.426 31.6727 49.4897 31.619L49.5826 31.5353C49.6119 31.506 49.6388 31.475 49.6664 31.4457C49.8978 31.2089 50.0952 30.9411 50.2527 30.6499C50.4071 30.3587 50.5239 30.0491 50.6003 29.7285L50.6414 29.4823L50.6623 29.3591L50.6707 29.2352L50.6866 28.9839L50.6782 28.7376C50.6591 28.4094 50.5893 28.0862 50.4713 27.7794C50.3504 27.4718 50.186 27.1833 49.983 26.9225C49.7725 26.6663 49.5272 26.4408 49.2543 26.2524C48.9779 26.0661 48.6749 25.9229 48.3555 25.8277C48.0348 25.7315 47.7011 25.6857 47.3663 25.692C47.2825 25.6979 47.1987 25.692 47.12 25.7054L46.8737 25.7397L46.6325 25.7967C46.5487 25.816 46.4759 25.8503 46.3971 25.8754C45.7658 26.1098 45.2338 26.5532 44.8894 27.1319C44.7183 27.4216 44.5966 27.7378 44.5292 28.0675C44.4607 28.3969 44.4522 28.736 44.5041 29.0685C44.6121 29.7394 44.9715 30.3441 45.5093 30.7596C45.7744 30.968 46.0761 31.1251 46.3988 31.2228C46.7247 31.3188 47.0659 31.3512 47.404 31.3183C48.0877 31.223 48.7062 30.8618 49.1253 30.3132C49.3353 30.0466 49.4814 29.7354 49.5525 29.4035C49.6205 29.0745 49.6008 28.7334 49.4955 28.4143C49.3813 28.0909 49.1909 27.7998 48.9404 27.5655C48.6899 27.3312 48.3868 27.1606 48.0565 27.0682C47.8923 27.0249 47.7236 27.0007 47.5539 26.9962C47.3858 26.9963 47.2186 27.0203 47.0572 27.0674C46.7299 27.1693 46.4423 27.3704 46.2343 27.6429C46.0263 27.9155 45.9082 28.2459 45.8962 28.5885C45.8822 28.9298 46.0021 29.2631 46.2305 29.5171C46.4588 29.7711 46.7775 29.9257 47.1183 29.948C47.2855 29.9624 47.4537 29.9359 47.6084 29.8708C47.7631 29.8058 47.8996 29.704 48.0062 29.5744C48.1149 29.4456 48.1892 29.2915 48.2223 29.1263C48.2554 28.9611 48.2462 28.7902 48.1955 28.6296C48.1369 28.4721 48.0324 28.3359 47.8954 28.2387C47.7584 28.1415 47.5954 28.0877 47.4274 28.0843C47.3999 28.0819 47.3742 28.0692 47.3555 28.0488C47.3368 28.0284 47.3265 28.0018 47.3265 27.9741C47.3265 27.9465 47.3368 27.9198 47.3555 27.8994C47.3742 27.879 47.3999 27.8664 47.4274 27.864C47.6436 27.8621 47.8553 27.9256 48.0347 28.0463C48.2141 28.1669 48.3528 28.339 48.4326 28.5399C48.5044 28.7422 48.5233 28.9594 48.4874 29.171C48.4515 29.3826 48.3619 29.5815 48.2274 29.7486C48.0937 29.9179 47.9213 30.0527 47.7248 30.1415C47.5287 30.2303 47.314 30.2702 47.0991 30.2579C46.6716 30.2401 46.2682 30.0551 45.9758 29.7428C45.6799 29.4288 45.5184 29.0115 45.526 28.5801C45.5296 28.1563 45.6665 27.7442 45.9172 27.4024C46.1671 27.0569 46.5184 26.7979 46.9223 26.6611C47.1255 26.5951 47.337 26.5587 47.5505 26.5531C48.08 26.5508 48.5973 26.7117 49.032 27.0141C49.4667 27.3164 49.7976 27.7454 49.9797 28.2426C50.1257 28.6469 50.1629 29.0825 50.0877 29.5057C50.01 29.9236 49.8382 30.3184 49.5851 30.66C49.3362 30.9983 49.0252 31.2862 48.6688 31.5085C48.31 31.7356 47.9077 31.8854 47.4877 31.9482C46.636 32.0545 45.7761 31.8289 45.0863 31.3183C44.3915 30.8067 43.9172 30.05 43.7595 29.2017C43.6093 28.3541 43.7572 27.4806 44.1783 26.7298C44.6012 25.9748 45.2698 25.3871 46.073 25.0646C46.1735 25.0286 46.2723 24.9809 46.377 24.9549L46.6895 24.8711L47.0094 24.8184C47.115 24.8008 47.2239 24.8016 47.3303 24.7924C47.7588 24.7732 48.1878 24.8207 48.6018 24.9331C49.0166 25.0453 49.412 25.2198 49.7744 25.4508C50.1375 25.6854 50.4652 25.9705 50.7478 26.2976C51.0238 26.6316 51.2495 27.0041 51.4179 27.4033C51.5841 27.8039 51.6878 28.2276 51.7253 28.6597L51.7445 28.9856L51.7337 29.3072L51.7261 29.4672L51.7043 29.6272C51.6893 29.7344 51.675 29.8408 51.6574 29.9471C51.5713 30.3701 51.4305 30.7801 51.2386 31.1667C51.0433 31.5532 50.7953 31.9107 50.5015 32.2288C50.4646 32.2682 50.4303 32.3126 50.3926 32.3495L50.2745 32.46C50.1907 32.5329 50.117 32.61 50.0324 32.6778C49.8645 32.8153 49.6877 32.9415 49.5031 33.0556C49.3187 33.171 49.1267 33.2737 48.9284 33.363C48.8288 33.4074 48.7257 33.4426 48.6244 33.4819L48.4711 33.5397L48.3128 33.5833C48.2081 33.6109 48.1017 33.6411 47.9962 33.667L47.6737 33.7207C47.566 33.74 47.4571 33.7515 47.3478 33.755C47.239 33.7609 47.1301 33.7709 47.0212 33.7726C46.1485 33.7784 45.288 33.5671 44.5173 33.1576C43.7466 32.7482 43.0898 32.1536 42.606 31.4272C42.1155 30.696 41.8142 29.8544 41.729 28.978C41.6539 28.1078 41.772 27.2316 42.075 26.4124C42.1501 26.2074 42.2374 26.0072 42.3363 25.8126C42.3824 25.7139 42.4347 25.6182 42.493 25.5262L42.6605 25.2455C42.7878 25.0688 42.9118 24.8879 43.0508 24.7187L43.2678 24.4741L43.3775 24.3518L43.4964 24.2404C44.1292 23.6261 44.891 23.1607 45.7263 22.8778C46.5617 22.595 47.4495 22.5019 48.3254 22.6054C49.1977 22.6965 50.0426 22.9635 50.8089 23.3902C51.5796 23.8193 52.2568 24.3983 52.8005 25.0929C53.3443 25.7875 53.7436 26.5839 53.9751 27.4351L54.0589 27.7559L54.1142 28.0826L54.167 28.4109C54.177 28.5207 54.1829 28.6312 54.1896 28.7418L54.2072 29.0727Z" fill="url(#paint11_linear_1207_9714)"/>
<path d="M38.1649 34.3966H26.3359V36.5158H38.1649V34.3966Z" fill="url(#paint12_linear_1207_9714)"/>
<g style="mix-blend-mode:soft-light">
<path style="mix-blend-mode:soft-light" d="M28.5046 36.5159H27.0781L26.3359 35.7737V34.3967H26.3854L28.5046 36.5159Z" fill="url(#paint13_linear_1207_9714)"/>
<path style="mix-blend-mode:soft-light" d="M31.5292 36.5159H30.1027L27.9844 34.3967H29.4109L31.5292 36.5159Z" fill="url(#paint14_linear_1207_9714)"/>
<path style="mix-blend-mode:soft-light" d="M34.5526 36.5159H33.127L31.0078 34.3967H32.4343L34.5526 36.5159Z" fill="url(#paint15_linear_1207_9714)"/>
<path style="mix-blend-mode:soft-light" d="M37.5769 36.5159H36.1504L34.0312 34.3967H35.4577L37.5769 36.5159Z" fill="url(#paint16_linear_1207_9714)"/>
</g>
<path d="M37.0081 34.188H36.5508V36.7244H37.0081V34.188Z" fill="url(#paint17_linear_1207_9714)"/>
<path d="M38.6688 34.7116V36.2C38.6688 36.3391 38.6136 36.4725 38.5152 36.5708C38.4169 36.6691 38.2835 36.7244 38.1445 36.7244H37.0078V34.188H38.1445C38.2133 34.1879 38.2815 34.2014 38.3451 34.2277C38.4087 34.2539 38.4665 34.2925 38.5152 34.3411C38.5639 34.3897 38.6025 34.4475 38.6289 34.511C38.6553 34.5746 38.6688 34.6427 38.6688 34.7116Z" fill="url(#paint18_linear_1207_9714)"/>
<mask id="mask3_1207_9714" style="mask-type:alpha" maskUnits="userSpaceOnUse" x="37" y="22" width="18" height="15">
<path d="M54.1642 29.0576C54.1642 29.1673 54.1583 29.2762 54.155 29.3851C54.1535 29.6036 54.1381 29.8219 54.1089 30.0384C54.0078 30.9127 53.7472 31.761 53.34 32.5413C52.8247 33.522 52.0957 34.3745 51.2068 35.0357C50.318 35.6969 49.2919 36.1501 48.2045 36.3617C47.7679 36.4463 47.3248 36.4931 46.8802 36.5016H37.6445V34.3824H46.8802C48.1706 34.3955 49.4225 33.9432 50.4066 33.1083C50.9003 32.6904 51.3155 32.1877 51.6329 31.6241C51.9487 31.0571 52.1568 30.4366 52.2469 29.7939C52.3429 29.1556 52.3165 28.5049 52.169 27.8765C52.0168 27.2507 51.7402 26.6618 51.3556 26.1452C50.9677 25.6222 50.4787 25.1825 49.9175 24.8523C49.3563 24.522 48.7344 24.308 48.0889 24.2228C47.4462 24.1283 46.7906 24.179 46.1701 24.371C45.5496 24.5631 44.9799 24.8917 44.503 25.3327C43.5289 26.1988 43.0053 27.539 43.0891 28.8457C43.1345 29.4958 43.3403 30.1246 43.688 30.6759C44.0424 31.229 44.5248 31.6887 45.0944 32.0161C45.6736 32.335 46.3206 32.5113 46.9815 32.5304C47.0653 32.5304 47.1449 32.5237 47.2261 32.5228C47.3075 32.5232 47.3888 32.5167 47.469 32.5036L47.712 32.4709L47.949 32.414L48.068 32.3863L48.1835 32.3444C48.2598 32.316 48.3377 32.2933 48.4139 32.2607C48.564 32.1959 48.71 32.122 48.8511 32.0395C48.9935 31.9572 49.1303 31.8657 49.2607 31.7656C49.3261 31.7162 49.383 31.6576 49.4467 31.604L49.5397 31.5202C49.569 31.4909 49.5958 31.4599 49.6234 31.4306C49.8548 31.1938 50.0522 30.926 50.2098 30.6348C50.3641 30.3436 50.4809 30.034 50.5574 29.7134L50.5984 29.4672L50.6194 29.3441L50.6277 29.2201L50.6437 28.9688L50.6353 28.7225C50.6161 28.3944 50.5463 28.0711 50.4284 27.7643C50.3075 27.4568 50.143 27.1682 49.94 26.9074C49.7295 26.6512 49.4842 26.4257 49.2113 26.2373C48.935 26.051 48.6319 25.9078 48.3125 25.8126C47.9918 25.7164 47.6581 25.6707 47.3233 25.6769C47.2395 25.6828 47.1558 25.6769 47.077 25.6903L46.8308 25.7247L46.5895 25.7816C46.5058 25.8009 46.4329 25.8352 46.3542 25.8604C45.7229 26.0947 45.1908 26.5381 44.8464 27.1168C44.6753 27.4066 44.5536 27.7227 44.4863 28.0524C44.4177 28.3819 44.4092 28.721 44.4611 29.0534C44.5692 29.7244 44.9285 30.329 45.4663 30.7446C45.7314 30.9529 46.0331 31.11 46.3558 31.2078C46.6817 31.3037 47.0229 31.3361 47.361 31.3033C48.0447 31.2079 48.6633 30.8467 49.0823 30.2981C49.2923 30.0315 49.4384 29.7203 49.5095 29.3884C49.5775 29.0594 49.5578 28.7183 49.4525 28.3992C49.3383 28.0758 49.1479 27.7847 48.8974 27.5504C48.647 27.3161 48.3438 27.1456 48.0135 27.0531C47.8493 27.0098 47.6807 26.9856 47.5109 26.9811C47.3428 26.9812 47.1756 27.0052 47.0142 27.0523C46.6869 27.1542 46.3993 27.3554 46.1913 27.6279C45.9834 27.9004 45.8652 28.2308 45.8533 28.5734C45.8392 28.9147 45.9592 29.248 46.1875 29.502C46.4159 29.756 46.7345 29.9107 47.0754 29.9329C47.2426 29.9473 47.4108 29.9209 47.5654 29.8558C47.7201 29.7907 47.8567 29.6889 47.9632 29.5593C48.0719 29.4306 48.1462 29.2764 48.1793 29.1112C48.2124 28.946 48.2032 28.7752 48.1526 28.6145C48.094 28.4571 47.9894 28.3209 47.8524 28.2236C47.7154 28.1264 47.5524 28.0726 47.3845 28.0692C47.3569 28.0668 47.3312 28.0541 47.3126 28.0337C47.2939 28.0134 47.2835 27.9867 47.2835 27.959C47.2835 27.9314 47.2939 27.9047 47.3126 27.8843C47.3312 27.8639 47.3569 27.8513 47.3845 27.8489C47.6006 27.847 47.8123 27.9105 47.9917 28.0312C48.1711 28.1518 48.3098 28.3239 48.3896 28.5249C48.4615 28.7271 48.4803 28.9443 48.4444 29.1559C48.4085 29.3675 48.319 29.5664 48.1844 29.7336C48.0507 29.9029 47.8784 30.0376 47.6818 30.1264C47.4857 30.2152 47.271 30.2552 47.0561 30.2428C46.6286 30.225 46.2252 30.04 45.9328 29.7277C45.6369 29.4137 45.4755 28.9965 45.483 28.5651C45.4867 28.1412 45.6235 27.7292 45.8742 27.3874C46.1241 27.0419 46.4755 26.7828 46.8794 26.6461C47.0825 26.58 47.2941 26.5436 47.5076 26.538C48.0371 26.5357 48.5544 26.6967 48.989 26.999C49.4237 27.3013 49.7546 27.7303 49.9367 28.2275C50.0827 28.6318 50.12 29.0674 50.0447 29.4906C49.9671 29.9086 49.7952 30.3033 49.5422 30.6449C49.2932 30.9832 48.9823 31.2712 48.6258 31.4934C48.267 31.7206 47.8648 31.8704 47.4448 31.9332C46.5931 32.0394 45.7332 31.8139 45.0433 31.3033C44.3485 30.7916 43.8742 30.0349 43.7165 29.1866C43.5663 28.339 43.7143 27.4656 44.1353 26.7147C44.5583 25.9597 45.2269 25.3721 46.03 25.0495C46.1305 25.0135 46.2294 24.9658 46.3341 24.9398L46.6465 24.8561L46.9665 24.8033C47.072 24.7857 47.1809 24.7865 47.2873 24.7773C47.7158 24.7582 48.1448 24.8056 48.5588 24.918C48.9737 25.0302 49.3691 25.2047 49.7315 25.4357C50.0945 25.6703 50.4222 25.9555 50.7048 26.2825C50.9808 26.6165 51.2065 26.989 51.3749 27.3882C51.5411 27.7888 51.6448 28.2125 51.6823 28.6446L51.7016 28.9705L51.6907 29.2921L51.6831 29.4521L51.6614 29.6121C51.6463 29.7193 51.6321 29.8257 51.6145 29.9321C51.5284 30.355 51.3876 30.765 51.1957 31.1517C51.0004 31.5382 50.7523 31.8956 50.4585 32.2138C50.4217 32.2531 50.3873 32.2975 50.3496 32.3344L50.2315 32.4449C50.1478 32.5178 50.0741 32.5949 49.9895 32.6627C49.8216 32.8002 49.6447 32.9264 49.4601 33.0405C49.2758 33.1559 49.0838 33.2586 48.8855 33.3479C48.7858 33.3923 48.6828 33.4275 48.5814 33.4669L48.4281 33.5246L48.2698 33.5682C48.1651 33.5958 48.0587 33.626 47.9532 33.652L47.6307 33.7056C47.5231 33.7249 47.4142 33.7364 47.3049 33.7399C47.196 33.7458 47.0871 33.7558 46.9782 33.7575C46.1055 33.7633 45.2451 33.552 44.4744 33.1426C43.7036 32.7332 43.0468 32.1385 42.5631 31.4122C42.0726 30.6809 41.7712 29.8393 41.6861 28.9629C41.6109 28.0927 41.7291 27.2166 42.032 26.3973C42.1072 26.1924 42.1944 25.9921 42.2934 25.7975C42.3394 25.6988 42.3918 25.6032 42.45 25.5111L42.6175 25.2305C42.7448 25.0537 42.8688 24.8728 43.0079 24.7036L43.2248 24.459L43.3345 24.3367L43.4535 24.2253C44.0863 23.6111 44.8481 23.1456 45.6834 22.8628C46.5187 22.5799 47.4066 22.4868 48.2824 22.5903C49.1548 22.6814 49.9996 22.9484 50.7659 23.3751C51.5367 23.8043 52.2138 24.3832 52.7576 25.0778C53.3013 25.7725 53.7007 26.5688 53.9322 27.42L54.0159 27.7408L54.0712 28.0675L54.124 28.3959C54.134 28.5056 54.1399 28.6162 54.1466 28.7267L54.1642 29.0576Z" fill="url(#paint19_linear_1207_9714)"/>
</mask>
<g mask="url(#mask3_1207_9714)">
<g filter="url(#filter6_f_1207_9714)">
<path d="M38.6523 35.0558L43.519 35.0642H45.9564C46.7606 35.0726 47.5563 34.9721 48.3269 34.7292C49.0892 34.4946 49.8179 34.1261 50.4545 33.6486C51.0995 33.1712 51.6523 32.5848 52.0627 31.898C52.2638 31.5545 52.4145 31.186 52.5318 30.8091L52.6072 30.5243C52.6239 30.474 52.6323 30.4238 52.6407 30.3819L52.6658 30.2311C52.7077 30.0384 52.7077 29.8374 52.7328 29.6364C52.7663 28.8406 52.6156 28.0365 52.3727 27.2827C52.3224 27.09 52.2386 26.9057 52.1633 26.7214C52.1297 26.6293 52.0795 26.5372 52.0376 26.4534C51.9957 26.3613 51.9538 26.2775 51.9036 26.1854L51.7528 25.9257C51.7277 25.8838 51.7026 25.8419 51.6774 25.8001L51.5937 25.6828C51.535 25.599 51.4764 25.5236 51.4178 25.4399L51.2251 25.2137C50.9571 24.9289 50.6472 24.6609 50.3037 24.4599C49.9603 24.2588 49.5917 24.1081 49.2064 24.0075C48.8211 23.907 48.4191 23.8651 48.0254 23.8735C47.6233 23.8819 47.2296 23.9322 46.836 24.0159C46.4423 24.1081 46.0653 24.2337 45.7052 24.4012C45.345 24.5687 44.9932 24.7698 44.6749 25.0127C44.5911 25.0713 44.5157 25.1383 44.4487 25.2053C44.3733 25.2724 44.3063 25.3394 44.2309 25.4147C44.1974 25.4483 44.1639 25.4901 44.1304 25.5236L44.0132 25.6325C43.9796 25.6744 43.9545 25.7163 43.9294 25.7498C43.9043 25.7917 43.8708 25.8336 43.8456 25.8754L43.7786 26.0011C43.7535 26.043 43.7367 26.0932 43.7116 26.1351L43.5943 26.4199C43.519 26.6042 43.4352 26.7885 43.3682 26.9811C43.2258 27.358 43.1001 27.7434 43.0248 28.137C42.9829 28.3297 42.9577 28.5307 42.9326 28.7317C42.9159 28.9328 42.9159 29.1338 42.9242 29.3265C42.941 29.5275 42.9661 29.7201 43.0164 29.9128C43.0666 30.1055 43.1253 30.2981 43.209 30.474C43.3682 30.8342 43.6027 31.1609 43.8708 31.454C44.1388 31.7472 44.4487 32.0069 44.7754 32.233C45.1021 32.4676 45.4455 32.6686 45.8224 32.811C46.5679 33.1042 47.3972 33.146 48.1678 32.945C48.9384 32.744 49.6504 32.3084 50.1865 31.7137C50.7142 31.119 51.066 30.3484 51.0911 29.5526C51.1078 29.1506 51.0408 28.7569 50.9152 28.3799L50.8063 28.1035L50.6807 27.8271L50.5383 27.5591L50.3875 27.2994C50.1781 26.956 49.9184 26.6461 49.6169 26.378C49.5415 26.311 49.4661 26.2524 49.3823 26.1854C49.2986 26.1267 49.2232 26.0681 49.131 26.0178C48.9635 25.9089 48.7792 25.8252 48.595 25.7582C48.4107 25.6912 48.218 25.6409 48.017 25.6074C47.816 25.5739 47.6233 25.5571 47.4223 25.5655C47.0202 25.5739 46.6265 25.6409 46.2412 25.7666C46.0486 25.8252 45.8643 25.9006 45.68 25.9927C45.4957 26.0765 45.3282 26.177 45.1775 26.311C44.8759 26.5707 44.6497 26.9141 44.4906 27.2743C44.3314 27.6428 44.2226 28.0365 44.2058 28.4302C44.1807 28.8323 44.2393 29.2343 44.3901 29.6029C44.5409 29.9714 44.7754 30.3065 45.0686 30.5745C45.3617 30.8509 45.7135 31.052 46.0821 31.2111C46.4506 31.3703 46.8443 31.4708 47.2464 31.4792C47.6484 31.4875 48.0505 31.387 48.3939 31.186C48.7457 30.985 49.0389 30.7002 49.2651 30.3735C49.374 30.206 49.4745 30.0301 49.5415 29.8458C49.6085 29.6615 49.6169 29.4521 49.6169 29.2595C49.6169 28.8574 49.5415 28.4553 49.374 28.0868C49.2902 27.9025 49.1729 27.735 49.0389 27.5926C48.8965 27.4502 48.729 27.3329 48.5531 27.2575C48.3688 27.1738 48.1762 27.1235 47.9751 27.0984C47.7741 27.0732 47.5731 27.0732 47.372 27.09C47.2715 27.0984 47.171 27.1151 47.0705 27.1235C46.97 27.1319 46.8695 27.157 46.7773 27.1905C46.5847 27.2492 46.4004 27.3245 46.2329 27.4334C46.0653 27.5423 45.9146 27.6847 45.814 27.8522C45.7052 28.0198 45.6465 28.2124 45.6298 28.4135C45.613 28.6145 45.6381 28.8155 45.6884 29.0082C45.7387 29.2008 45.814 29.3935 45.9146 29.561C46.0151 29.7285 46.1575 29.8793 46.3334 29.9798C46.5093 30.0803 46.7019 30.1306 46.903 30.139C47.2966 30.139 47.7238 30.0468 48.0086 29.762C48.151 29.6196 48.2515 29.4437 48.3018 29.2511C48.3269 29.1506 48.3353 29.05 48.3269 28.9579C48.3185 28.8574 48.3018 28.7569 48.2683 28.6647C48.2013 28.4721 48.0756 28.3129 47.9165 28.1873C47.7573 28.0616 47.5731 27.9779 47.3804 27.9193L47.3888 27.8941C47.5814 27.9528 47.7741 28.0365 47.9332 28.1622C48.0924 28.2878 48.2264 28.4553 48.2934 28.648C48.3269 28.7485 48.3437 28.849 48.3521 28.9495C48.3521 29.05 48.3521 29.1589 48.3269 29.2595C48.2767 29.4605 48.1762 29.6448 48.0254 29.7872C47.883 29.9379 47.6987 30.0384 47.4977 30.0971C47.305 30.1557 47.0956 30.1892 46.8946 30.1808C46.6936 30.1725 46.4841 30.1222 46.3082 30.0217C46.1323 29.9212 45.9816 29.762 45.8811 29.5861C45.7805 29.4102 45.6968 29.2176 45.6465 29.0165C45.5963 28.8155 45.5628 28.6145 45.5795 28.4051C45.5963 28.204 45.6549 27.9946 45.7638 27.8187C45.8727 27.6428 46.0318 27.5004 46.1994 27.3832C46.3753 27.2743 46.5595 27.1905 46.7606 27.1319C46.8611 27.1068 46.9616 27.0816 47.0621 27.0649C47.1626 27.0481 47.2631 27.0314 47.3637 27.0314C47.5647 27.0146 47.7741 27.0146 47.9751 27.0397C48.1762 27.0649 48.3772 27.1151 48.5698 27.1989C48.7541 27.2827 48.93 27.3999 49.0724 27.5507C49.2148 27.7015 49.3321 27.869 49.4242 28.0533C49.6001 28.4218 49.6755 28.8406 49.6755 29.2511C49.6755 29.3516 49.6671 29.4521 49.6588 29.561C49.6504 29.6615 49.6336 29.7704 49.5917 29.8625C49.5247 30.0552 49.4242 30.2395 49.3069 30.407C49.0724 30.7421 48.7709 31.0352 48.4191 31.2446C48.0589 31.454 47.6484 31.5545 47.238 31.5462C46.8276 31.5462 46.4171 31.4373 46.0486 31.2781C45.6717 31.119 45.3115 30.9096 45.0099 30.6332C44.7 30.3567 44.4571 30.0133 44.3063 29.628C44.1555 29.2427 44.0885 28.8239 44.1137 28.4135C44.1304 28.003 44.2393 27.601 44.3985 27.224C44.566 26.8471 44.8005 26.5037 45.1104 26.2272C45.2612 26.0849 45.4455 25.976 45.6298 25.8922C45.814 25.8001 46.0067 25.7247 46.1994 25.6577C46.5847 25.532 46.9951 25.4566 47.4055 25.4483C47.6149 25.4399 47.816 25.4566 48.017 25.4901C48.218 25.5236 48.4191 25.5739 48.6117 25.6409C48.8044 25.7079 48.997 25.8001 49.1729 25.9089C49.2651 25.9592 49.3488 26.0178 49.4326 26.0765C49.5164 26.1435 49.6001 26.2021 49.6755 26.2691C49.9854 26.5455 50.2451 26.8638 50.4629 27.2073L50.622 27.4753L50.7644 27.7434L50.8901 28.0198L50.999 28.3046C51.133 28.6982 51.2 29.1087 51.1832 29.5191C51.1581 30.3484 50.7979 31.1441 50.2535 31.7556C49.709 32.3754 48.9719 32.8194 48.1762 33.0288C47.3804 33.2382 46.5177 33.1963 45.747 32.8948C45.3617 32.744 45.0016 32.5346 44.6665 32.3C44.3314 32.0655 44.0132 31.8058 43.7367 31.4959C43.4603 31.1944 43.209 30.8509 43.0415 30.474C42.9494 30.2897 42.8907 30.0887 42.8321 29.8877C42.7818 29.6866 42.7483 29.4772 42.7316 29.2762C42.7232 29.0668 42.7232 28.8658 42.74 28.6564C42.7567 28.447 42.7818 28.2459 42.8321 28.0449C42.9159 27.6428 43.0415 27.2492 43.1839 26.8638C43.2593 26.6712 43.3347 26.4869 43.4101 26.2943L43.5357 26.0178C43.5608 25.9676 43.5776 25.9257 43.6027 25.8754L43.6781 25.733C43.7032 25.6828 43.7367 25.6409 43.7619 25.599C43.7954 25.5571 43.8205 25.5153 43.854 25.4734L43.9545 25.3561C43.988 25.3142 44.0215 25.2724 44.055 25.2388C44.1304 25.1635 44.1974 25.0881 44.2812 25.0211C44.3566 24.9541 44.432 24.887 44.5157 24.82C44.8424 24.5687 45.2026 24.3593 45.5711 24.1918C45.9481 24.0243 46.3334 23.8819 46.7354 23.7898C47.1375 23.6976 47.5479 23.6474 47.9584 23.639C48.3688 23.6306 48.7876 23.6725 49.1897 23.773C49.5917 23.8735 49.977 24.0327 50.3372 24.2421C50.6974 24.4515 51.0157 24.7279 51.3005 25.0211L51.5015 25.2556C51.5685 25.3394 51.6272 25.4231 51.6858 25.5069L51.7779 25.6325C51.8031 25.6744 51.8282 25.7247 51.8617 25.7666L52.0209 26.0346C52.0711 26.1267 52.113 26.2189 52.1549 26.311C52.1968 26.4031 52.247 26.4953 52.2805 26.5874C52.3559 26.7801 52.4397 26.9644 52.4983 27.1654C52.7496 27.9444 52.9087 28.7653 52.8752 29.5945C52.8585 29.8039 52.8501 30.0049 52.8082 30.2143L52.7831 30.3651C52.7747 30.4154 52.7663 30.4656 52.7496 30.5159L52.6742 30.8174C52.5569 31.2111 52.3978 31.5964 52.1884 31.9566C51.7696 32.6686 51.1916 33.2801 50.5299 33.7743C49.8682 34.2685 49.1227 34.6454 48.3437 34.8883C47.5563 35.1396 46.7271 35.2485 45.9146 35.2401H43.4771L38.6523 35.3071V35.0558Z" fill="white"/>
</g>
</g>
<mask id="mask4_1207_9714" style="mask-type:alpha" maskUnits="userSpaceOnUse" x="26" y="34" width="13" height="3">
<path d="M38.649 34.3598H26.3359V36.5376H38.649V34.3598Z" fill="url(#paint20_linear_1207_9714)"/>
</mask>
<g mask="url(#mask4_1207_9714)">
<g filter="url(#filter7_f_1207_9714)">
<path d="M38.3977 35.1974H25.582" stroke="white" stroke-width="0.251288"/>
</g>
</g>
</g>
<mask id="mask5_1207_9714" style="mask-type:alpha" maskUnits="userSpaceOnUse" x="26" y="30" width="14" height="11">
<path fill-rule="evenodd" clip-rule="evenodd" d="M30.2584 31.5075C30.3355 31.5528 30.4114 31.6002 30.4858 31.6497V31.2613H38.3595L39.3228 38.758H30.0195C29.6514 38.9698 29.2685 39.1549 28.8738 39.3117C28.6501 39.403 28.4399 39.4801 28.2556 39.5446L28.1947 39.566C28.0279 39.6246 27.8487 39.6876 27.6316 39.7473C27.3878 39.8143 27.1851 39.8687 26.9925 39.9148C26.8358 39.9533 26.7018 39.9826 26.5737 40.0078C26.5601 40.0104 26.5464 40.0118 26.5326 40.012C26.4916 40.012 26.4516 39.9997 26.4177 39.9767C26.3838 39.9537 26.3576 39.921 26.3425 39.883C26.3251 39.8394 26.324 39.791 26.3394 39.7467C26.3548 39.7024 26.3856 39.6652 26.4262 39.6417C26.525 39.5803 26.625 39.5202 26.7246 39.4602L26.7806 39.4265C26.9397 39.3301 27.1005 39.2363 27.2605 39.1433L28.4089 38.4732C28.7456 38.2739 29.1025 38.0603 29.4266 37.835C29.5738 37.7358 29.7137 37.6264 29.8454 37.5075C29.8795 37.476 29.912 37.4427 29.9426 37.4078C29.9125 37.3722 29.88 37.3386 29.8454 37.3073C29.7138 37.1882 29.5739 37.0788 29.4266 36.9798C29.1083 36.7603 28.764 36.5509 28.4089 36.3415L27.2278 35.6538L26.9874 35.5122C26.9454 35.4877 26.9105 35.4525 26.8863 35.4102C26.862 35.368 26.8493 35.3201 26.8493 35.2714C26.8493 35.2227 26.862 35.1748 26.8863 35.1326C26.9105 35.0903 26.9454 35.0552 26.9874 35.0306L28.3704 34.2256C28.7548 33.9978 29.1611 33.7549 29.5355 33.4952C29.704 33.3808 29.8644 33.2549 30.0155 33.1183C30.0575 33.0799 30.097 33.0388 30.1336 32.9952L30.1403 32.9876L30.1294 32.9751C30.0941 32.9335 30.056 32.8943 30.0155 32.8578C29.864 32.721 29.7034 32.5948 29.5347 32.48C29.1703 32.2279 28.7758 31.9909 28.3695 31.7505L27.0603 30.9882C26.8769 30.881 26.6934 30.7729 26.51 30.6624C26.3743 30.5814 26.2386 30.499 26.1029 30.4153C26.0611 30.3904 26.0297 30.3513 26.0143 30.3052C25.9989 30.2591 26.0006 30.209 26.0191 30.164C26.0377 30.1179 26.0719 30.0798 26.1156 30.0562C26.1594 30.0326 26.21 30.0251 26.2587 30.035C26.4003 30.0618 26.5502 30.0945 26.742 30.1405C26.9581 30.1916 27.1893 30.2519 27.4699 30.3357C27.5905 30.3717 27.7095 30.4086 27.8284 30.4471C27.9222 30.4764 28.0151 30.5082 28.108 30.54L28.108 30.54L28.1082 30.5401L28.1836 30.566C28.4189 30.6473 28.656 30.7369 28.8889 30.8324C29.3616 31.0228 29.8194 31.2485 30.2584 31.5075Z" fill="black"/>
</mask>
<g mask="url(#mask5_1207_9714)">
<g filter="url(#filter8_f_1207_9714)">
<path d="M29.5339 33.495C29.1595 33.7547 28.7532 33.9976 28.3688 34.2254L26.9858 35.0304C26.9438 35.0549 26.9089 35.0901 26.8847 35.1324C26.8604 35.1746 26.8477 35.2225 26.8477 35.2712C26.8477 35.3199 26.8604 35.3678 26.8847 35.41C26.9089 35.4523 26.9438 35.4874 26.9858 35.512L27.2262 35.6536L28.4073 36.3412C28.7624 36.5507 29.1067 36.7601 29.425 36.9795" stroke="url(#paint21_radial_1207_9714)" stroke-width="0.670101"/>
</g>
</g>
<mask id="mask6_1207_9714" style="mask-type:alpha" maskUnits="userSpaceOnUse" x="26" y="30" width="14" height="11">
<path fill-rule="evenodd" clip-rule="evenodd" d="M30.2584 31.5075C30.3355 31.5528 30.4114 31.6002 30.4858 31.6497V31.2613H38.3595L39.3228 38.758H30.0195C29.6514 38.9698 29.2685 39.1549 28.8738 39.3117C28.6501 39.403 28.4399 39.4801 28.2556 39.5446L28.1947 39.566C28.0279 39.6246 27.8487 39.6876 27.6316 39.7473C27.3878 39.8143 27.1851 39.8687 26.9925 39.9148C26.8358 39.9533 26.7018 39.9826 26.5737 40.0078C26.5601 40.0104 26.5464 40.0118 26.5326 40.012C26.4916 40.012 26.4516 39.9997 26.4177 39.9767C26.3838 39.9537 26.3576 39.921 26.3425 39.883C26.3251 39.8394 26.324 39.791 26.3394 39.7467C26.3548 39.7024 26.3856 39.6652 26.4262 39.6417C26.525 39.5803 26.625 39.5202 26.7246 39.4602L26.7806 39.4265C26.9397 39.3301 27.1005 39.2363 27.2605 39.1433L28.4089 38.4732C28.7456 38.2739 29.1025 38.0603 29.4266 37.835C29.5738 37.7358 29.7137 37.6264 29.8454 37.5075C29.8795 37.476 29.912 37.4427 29.9426 37.4078C29.9125 37.3722 29.88 37.3386 29.8454 37.3073C29.7138 37.1882 29.5739 37.0788 29.4266 36.9798C29.1083 36.7603 28.764 36.5509 28.4089 36.3415L27.2278 35.6538L26.9874 35.5122C26.9454 35.4877 26.9105 35.4525 26.8863 35.4102C26.862 35.368 26.8493 35.3201 26.8493 35.2714C26.8493 35.2227 26.862 35.1748 26.8863 35.1326C26.9105 35.0903 26.9454 35.0552 26.9874 35.0306L28.3704 34.2256C28.7548 33.9978 29.1611 33.7549 29.5355 33.4952C29.704 33.3808 29.8644 33.2549 30.0155 33.1183C30.0575 33.0799 30.097 33.0388 30.1336 32.9952L30.1403 32.9876L30.1294 32.9751C30.0941 32.9335 30.056 32.8943 30.0155 32.8578C29.864 32.721 29.7034 32.5948 29.5347 32.48C29.1703 32.2279 28.7758 31.9909 28.3695 31.7505L27.0603 30.9882C26.8769 30.881 26.6934 30.7729 26.51 30.6624C26.3743 30.5814 26.2386 30.499 26.1029 30.4153C26.0611 30.3904 26.0297 30.3513 26.0143 30.3052C25.9989 30.2591 26.0006 30.209 26.0191 30.164C26.0377 30.1179 26.0719 30.0798 26.1156 30.0562C26.1594 30.0326 26.21 30.0251 26.2587 30.035C26.4003 30.0618 26.5502 30.0945 26.742 30.1405C26.9581 30.1916 27.1893 30.2519 27.4699 30.3357C27.5905 30.3717 27.7095 30.4086 27.8284 30.4471C27.9222 30.4764 28.0151 30.5082 28.108 30.54L28.108 30.54L28.1082 30.5401L28.1836 30.566C28.4189 30.6473 28.656 30.7369 28.8889 30.8324C29.3616 31.0228 29.8194 31.2485 30.2584 31.5075Z" fill="black"/>
</mask>
<g mask="url(#mask6_1207_9714)">
<g filter="url(#filter9_f_1207_9714)">
<path d="M29.5339 33.495C29.1595 33.7547 28.7532 33.9976 28.3688 34.2254L26.9858 35.0304C26.9438 35.0549 26.9089 35.0901 26.8847 35.1324C26.8604 35.1746 26.8477 35.2225 26.8477 35.2712C26.8477 35.3199 26.8604 35.3678 26.8847 35.41C26.9089 35.4523 26.9438 35.4874 26.9858 35.512L27.2262 35.6536L28.4073 36.3412C28.7624 36.5507 29.1067 36.7601 29.425 36.9795" stroke="url(#paint22_radial_1207_9714)" stroke-width="1.00515"/>
</g>
</g>
<path d="M19.9869 6.4537V6.47212C17.1356 7.36471 14.5183 8.87984 12.3243 10.9079C10.1303 12.936 8.41454 15.4264 7.30102 18.1989C7.14131 18.5954 6.99501 18.9938 6.8621 19.3942L6.46507 18.2324L6.22216 17.5187L5.46829 15.2948L4.7605 13.22L3.75451 10.2816L3.6875 10.0848L3.04504 8.20433L2.37494 6.23759L2.04324 5.26594L1.4368 3.48682L1.33461 3.18695L0.915794 1.96402C0.861712 1.80608 0.852557 1.63623 0.88935 1.4734C0.926144 1.31056 1.00744 1.16114 1.12417 1.04181C1.24091 0.922466 1.38849 0.837892 1.55047 0.797514C1.71246 0.757135 1.88247 0.762538 2.04156 0.813121L3.02577 1.12221L3.7587 1.35255L4.94645 1.72446L6.75907 2.29404L7.65533 2.57632L9.56931 3.17858L10.6113 3.50609L12.279 4.03044L14.0422 4.58411L14.1964 4.6327L16.9052 5.48456L18.031 5.83888L18.8226 6.09017L19.9869 6.4537Z" fill="url(#paint23_linear_1207_9714)"/>
<path d="M19.9874 6.45368L19.9723 6.47714C17.1238 7.37166 14.5094 8.88767 12.3182 10.9157C10.127 12.9437 8.41347 15.433 7.30152 18.2039C7.14181 18.6004 6.99551 18.9988 6.8626 19.3992L6.46557 18.2374L6.22266 17.5238C8.36016 12.3313 12.4606 8.19237 17.6328 6.00639C17.7651 5.95055 17.898 5.89471 18.0315 5.83887L18.8231 6.09016L19.9874 6.45368Z" fill="#42C5E9"/>
<path d="M4.75687 13.2192C6.76521 9.35693 10.0457 6.30666 14.0436 4.58413L12.2804 4.03046L10.6127 3.5061C7.83572 5.14463 5.46868 7.3945 3.69141 10.0848L3.75842 10.2817L4.75687 13.2192Z" fill="#42C5E9"/>
<path d="M2.3748 6.2359C3.61775 4.69854 5.09666 3.36806 6.75643 2.29403L4.94715 1.72444L3.7594 1.35254C2.93321 2.00496 2.15707 2.71839 1.4375 3.48681L2.04394 5.26593L2.3748 6.2359Z" fill="#42C5E9"/>
<mask id="mask7_1207_9714" style="mask-type:alpha" maskUnits="userSpaceOnUse" x="0" y="0" width="20" height="20">
<path d="M19.983 6.45321V6.47164C17.1317 7.36422 14.5144 8.87935 12.3204 10.9074C10.1264 12.9355 8.41063 15.4259 7.29711 18.1984C7.1374 18.5949 6.9911 18.9933 6.8582 19.3937L6.46116 18.2319L6.21825 17.5182L5.46439 15.2944L4.75659 13.2196L3.7506 10.2812L3.68359 10.0843L3.04113 8.20385L2.37103 6.2371L2.03933 5.26545L1.43289 3.48634L1.3307 3.18647L0.911887 1.96353C0.857805 1.80559 0.848651 1.63574 0.885444 1.47291C0.922238 1.31007 1.00353 1.16066 1.12027 1.04132C1.237 0.921977 1.38459 0.837404 1.54657 0.797025C1.70855 0.756647 1.87857 0.76205 2.03766 0.812633L3.02187 1.12172L3.75479 1.35206L4.94254 1.72397L6.75517 2.29356L7.65143 2.57584L9.5654 3.17809L10.6074 3.5056L12.2751 4.02995L14.0383 4.58363L14.1924 4.63221L16.9013 5.48407L18.0271 5.83839L18.8187 6.08968L19.983 6.45321Z" fill="url(#paint24_linear_1207_9714)"/>
<path d="M19.9835 6.4532L19.9684 6.47665C17.1198 7.37117 14.5055 8.88718 12.3143 10.9152C10.123 12.9432 8.40956 15.4325 7.29761 18.2034C7.1379 18.5999 6.9916 18.9983 6.8587 19.3987L6.46166 18.2369L6.21875 17.5233C8.35626 12.3309 12.4567 8.19188 17.6289 6.0059C17.7612 5.95006 17.8941 5.89422 18.0276 5.83838L18.8192 6.08967L19.9835 6.4532Z" fill="#42C5E9"/>
<path d="M4.75296 13.2187C6.7613 9.35644 10.0418 6.30617 14.0397 4.58364L12.2765 4.02997L10.6088 3.50562C7.83181 5.14414 5.46477 7.39402 3.6875 10.0843L3.75451 10.2812L4.75296 13.2187Z" fill="#42C5E9"/>
<path d="M2.3709 6.23541C3.61384 4.69806 5.09275 3.36757 6.75252 2.29354L4.94325 1.72396L3.75549 1.35205C2.9293 2.00448 2.15316 2.7179 1.43359 3.48632L2.04004 5.26544L2.3709 6.23541Z" fill="#42C5E9"/>
</mask>
<g mask="url(#mask7_1207_9714)">
<g filter="url(#filter10_f_1207_9714)">
<path d="M-0.304688 -0.569458L14.7726 12.665" stroke="white" stroke-width="0.670101"/>
</g>
</g>
<path d="M10.2858 22.9809C9.65091 23.9417 11.5875 25.2207 10.9559 26.1815C10.3244 27.1422 8.38526 25.8632 7.75034 26.8231C7.11542 27.783 9.05201 29.0637 8.42044 30.0245C7.78887 30.9853 5.84976 29.7062 5.21484 30.667" stroke="#DD0044" stroke-width="0.670101" stroke-miterlimit="10" stroke-linecap="round"/>
<path d="M43.1953 11.193C43.5756 12.2819 45.766 11.5121 46.1471 12.5994C46.5282 13.6866 44.337 14.453 44.7173 15.5394C45.0976 16.6258 47.2888 15.8594 47.6691 16.9458C48.0494 18.0322 45.8598 18.8003 46.2401 19.8867" stroke="#F15A24" stroke-width="0.670101" stroke-miterlimit="10" stroke-linecap="round"/>
<path d="M37.1594 38.9142L35.7422 41.1691L38.5784 42.8201L39.5886 40.1765L37.1594 38.9142Z" fill="#42C5E9"/>
<path d="M6.35867 37.0397L4.94141 39.2954L7.77761 40.9455L8.78779 38.302L6.35867 37.0397Z" fill="#DD0044"/>
<path d="M29.7836 9.24048L28.3672 11.4954L31.2034 13.1455L32.2127 10.5019L29.7836 9.24048Z" fill="#3066D9"/>
<path d="M16.1477 35.7203L14.7305 37.9761L17.5675 39.6262L18.5768 36.9826L16.1477 35.7203Z" fill="#2E67DE"/>
<path d="M36.1313 1.55444L34.7148 3.80933L37.551 5.45946L38.5604 2.81591L36.1313 1.55444Z" fill="#42C5E9"/>
<path d="M5.63992 19.3297L4.22266 21.5846L7.05886 23.2347L8.06904 20.5912L5.63992 19.3297Z" fill="#F15A24"/>
<path d="M18.0696 3.79504L16.6523 6.04993L19.4894 7.70006L20.4987 5.05651L18.0696 3.79504Z" fill="#DD0044"/>
<path d="M25.093 43.9932L23.6758 46.2481L26.5128 47.899L27.5222 45.2546L25.093 43.9932Z" fill="#F15A24"/>
<defs>
<filter id="filter0_f_1207_9714" x="3.64812" y="22.7642" width="44.8131" height="25.6812" filterUnits="userSpaceOnUse" color-interpolation-filters="sRGB">
<feFlood flood-opacity="0" result="BackgroundImageFix"/>
<feBlend mode="normal" in="SourceGraphic" in2="BackgroundImageFix" result="shape"/>
<feGaussianBlur stdDeviation="1.04703" result="effect1_foregroundBlur_1207_9714"/>
</filter>
<filter id="filter1_f_1207_9714" x="2.39168" y="21.5078" width="47.326" height="28.1941" filterUnits="userSpaceOnUse" color-interpolation-filters="sRGB">
<feFlood flood-opacity="0" result="BackgroundImageFix"/>
<feBlend mode="normal" in="SourceGraphic" in2="BackgroundImageFix" result="shape"/>
<feGaussianBlur stdDeviation="1.67525" result="effect1_foregroundBlur_1207_9714"/>
</filter>
<filter id="filter2_f_1207_9714" x="22.3141" y="25.8158" width="18.4265" height="18.4278" filterUnits="userSpaceOnUse" color-interpolation-filters="sRGB">
<feFlood flood-opacity="0" result="BackgroundImageFix"/>
<feBlend mode="normal" in="SourceGraphic" in2="BackgroundImageFix" result="shape"/>
<feGaussianBlur stdDeviation="2.51288" result="effect1_foregroundBlur_1207_9714"/>
</filter>
<filter id="filter3_f_1207_9714" x="28.0914" y="17.4399" width="18.4265" height="18.4278" filterUnits="userSpaceOnUse" color-interpolation-filters="sRGB">
<feFlood flood-opacity="0" result="BackgroundImageFix"/>
<feBlend mode="normal" in="SourceGraphic" in2="BackgroundImageFix" result="shape"/>
<feGaussianBlur stdDeviation="2.51288" result="effect1_foregroundBlur_1207_9714"/>
</filter>
<filter id="filter4_f_1207_9714" x="5.72815" y="17.4399" width="18.4265" height="18.4278" filterUnits="userSpaceOnUse" color-interpolation-filters="sRGB">
<feFlood flood-opacity="0" result="BackgroundImageFix"/>
<feBlend mode="normal" in="SourceGraphic" in2="BackgroundImageFix" result="shape"/>
<feGaussianBlur stdDeviation="2.51288" result="effect1_foregroundBlur_1207_9714"/>
</filter>
<filter id="filter5_f_1207_9714" x="27.5418" y="32.7518" width="17.0375" height="9.4845" filterUnits="userSpaceOnUse" color-interpolation-filters="sRGB">
<feFlood flood-opacity="0" result="BackgroundImageFix"/>
<feBlend mode="normal" in="SourceGraphic" in2="BackgroundImageFix" result="shape"/>
<feGaussianBlur stdDeviation="1.25644" result="effect1_foregroundBlur_1207_9714"/>
</filter>
<filter id="filter6_f_1207_9714" x="37.8147" y="22.8003" width="15.9018" height="13.3444" filterUnits="userSpaceOnUse" color-interpolation-filters="sRGB">
<feFlood flood-opacity="0" result="BackgroundImageFix"/>
<feBlend mode="normal" in="SourceGraphic" in2="BackgroundImageFix" result="shape"/>
<feGaussianBlur stdDeviation="0.418813" result="effect1_foregroundBlur_1207_9714"/>
</filter>
<filter id="filter7_f_1207_9714" x="24.9119" y="34.4017" width="14.1566" height="1.59154" filterUnits="userSpaceOnUse" color-interpolation-filters="sRGB">
<feFlood flood-opacity="0" result="BackgroundImageFix"/>
<feBlend mode="normal" in="SourceGraphic" in2="BackgroundImageFix" result="shape"/>
<feGaussianBlur stdDeviation="0.33505" result="effect1_foregroundBlur_1207_9714"/>
</filter>
<filter id="filter8_f_1207_9714" x="25.5066" y="32.2145" width="5.22515" height="6.04601" filterUnits="userSpaceOnUse" color-interpolation-filters="sRGB">
<feFlood flood-opacity="0" result="BackgroundImageFix"/>
<feBlend mode="normal" in="SourceGraphic" in2="BackgroundImageFix" result="shape"/>
<feGaussianBlur stdDeviation="0.502576" result="effect1_foregroundBlur_1207_9714"/>
</filter>
<filter id="filter9_f_1207_9714" x="25.1711" y="31.9094" width="5.82192" height="6.65663" filterUnits="userSpaceOnUse" color-interpolation-filters="sRGB">
<feFlood flood-opacity="0" result="BackgroundImageFix"/>
<feBlend mode="normal" in="SourceGraphic" in2="BackgroundImageFix" result="shape"/>
<feGaussianBlur stdDeviation="0.586338" result="effect1_foregroundBlur_1207_9714"/>
</filter>
<filter id="filter10_f_1207_9714" x="-3.04022" y="-3.33417" width="20.5453" height="18.7639" filterUnits="userSpaceOnUse" color-interpolation-filters="sRGB">
<feFlood flood-opacity="0" result="BackgroundImageFix"/>
<feBlend mode="normal" in="SourceGraphic" in2="BackgroundImageFix" result="shape"/>
<feGaussianBlur stdDeviation="1.25644" result="effect1_foregroundBlur_1207_9714"/>
</filter>
<radialGradient id="paint0_radial_1207_9714" cx="0" cy="0" r="1" gradientUnits="userSpaceOnUse" gradientTransform="translate(26.0813 5.46197) rotate(90) scale(40.3736)">
<stop stop-color="#FFDE43"/>
<stop offset="1" stop-color="#FFBC00"/>
</radialGradient>
<radialGradient id="paint1_radial_1207_9714" cx="0" cy="0" r="1" gradientUnits="userSpaceOnUse" gradientTransform="translate(26.0813 10.8647) rotate(90) scale(34.9709)">
<stop stop-color="white" stop-opacity="0.5"/>
<stop offset="0.782278"/>
</radialGradient>
<radialGradient id="paint2_radial_1207_9714" cx="0" cy="0" r="1" gradientUnits="userSpaceOnUse" gradientTransform="translate(26.0813 10.8647) rotate(90) scale(34.9709)">
<stop stop-color="white" stop-opacity="0.5"/>
<stop offset="0.782278"/>
</radialGradient>
<radialGradient id="paint3_radial_1207_9714" cx="0" cy="0" r="1" gradientUnits="userSpaceOnUse" gradientTransform="translate(26.0813 1.06444) rotate(90) scale(44.7711 60.5465)">
<stop offset="0.0922635" stop-color="white"/>
<stop offset="0.670207" stop-color="white" stop-opacity="0"/>
</radialGradient>
<radialGradient id="paint4_radial_1207_9714" cx="0" cy="0" r="1" gradientUnits="userSpaceOnUse" gradientTransform="translate(28.7428 34.9737) scale(2.07333 10.0866)">
<stop stop-color="#743C1C"/>
<stop offset="1" stop-color="#401C02"/>
</radialGradient>
<linearGradient id="paint5_linear_1207_9714" x1="31.5703" y1="34.9942" x2="25.912" y2="34.9942" gradientUnits="userSpaceOnUse">
<stop stop-color="#FFDE43"/>
<stop offset="0.22" stop-color="#FED93F"/>
<stop offset="0.51" stop-color="#FCC934"/>
<stop offset="0.82" stop-color="#F9AF21"/>
<stop offset="1" stop-color="#F79D14"/>
</linearGradient>
<radialGradient id="paint6_radial_1207_9714" cx="0" cy="0" r="1" gradientUnits="userSpaceOnUse" gradientTransform="translate(19.0849 25.0726) scale(5.30927 1.56872)">
<stop stop-color="#743C1C"/>
<stop offset="1" stop-color="#401C02"/>
</radialGradient>
<linearGradient id="paint7_linear_1207_9714" x1="19.0907" y1="26.7278" x2="19.0907" y2="23.4069" gradientUnits="userSpaceOnUse">
<stop stop-color="#FFDE43"/>
<stop offset="0.22" stop-color="#FED93F"/>
<stop offset="0.51" stop-color="#FCC934"/>
<stop offset="0.82" stop-color="#F9AF21"/>
<stop offset="1" stop-color="#F79D14"/>
</linearGradient>
<radialGradient id="paint8_radial_1207_9714" cx="0" cy="0" r="1" gradientUnits="userSpaceOnUse" gradientTransform="translate(33.0812 25.0726) scale(5.30946 1.56872)">
<stop stop-color="#743C1C"/>
<stop offset="1" stop-color="#401C02"/>
</radialGradient>
<linearGradient id="paint9_linear_1207_9714" x1="33.087" y1="26.7278" x2="33.087" y2="23.4069" gradientUnits="userSpaceOnUse">
<stop stop-color="#FFDE43"/>
<stop offset="0.22" stop-color="#FED93F"/>
<stop offset="0.51" stop-color="#FCC934"/>
<stop offset="0.82" stop-color="#F9AF21"/>
<stop offset="1" stop-color="#F79D14"/>
</linearGradient>
<radialGradient id="paint10_radial_1207_9714" cx="0" cy="0" r="1" gradientUnits="userSpaceOnUse" gradientTransform="translate(26.0813 5.46197) rotate(90) scale(40.3736)">
<stop stop-color="#FFDE43"/>
<stop offset="1" stop-color="#FFBC00"/>
</radialGradient>
<linearGradient id="paint11_linear_1207_9714" x1="46.6685" y1="36.6557" x2="44.2721" y2="23.0652" gradientUnits="userSpaceOnUse">
<stop stop-color="#005269"/>
<stop offset="0.7" stop-color="#42C5E9"/>
</linearGradient>
<linearGradient id="paint12_linear_1207_9714" x1="32.2504" y1="36.5158" x2="32.2504" y2="34.3966" gradientUnits="userSpaceOnUse">
<stop stop-color="#053584"/>
<stop offset="0.7" stop-color="#1D60D1"/>
</linearGradient>
<linearGradient id="paint13_linear_1207_9714" x1="28.1477" y1="36.8719" x2="26.0042" y2="34.7284" gradientUnits="userSpaceOnUse">
<stop stop-color="#17A7CF"/>
<stop offset="0.7" stop-color="#42C5E9"/>
</linearGradient>
<linearGradient id="paint14_linear_1207_9714" x1="1527.45" y1="1035.16" x2="1464.34" y2="929.595" gradientUnits="userSpaceOnUse">
<stop stop-color="#17A7CF"/>
<stop offset="0.7" stop-color="#42C5E9"/>
</linearGradient>
<linearGradient id="paint15_linear_1207_9714" x1="1658.44" y1="1035.16" x2="1595.33" y2="929.595" gradientUnits="userSpaceOnUse">
<stop stop-color="#17A7CF"/>
<stop offset="0.7" stop-color="#42C5E9"/>
</linearGradient>
<linearGradient id="paint16_linear_1207_9714" x1="1789.85" y1="1035.16" x2="1726.74" y2="929.582" gradientUnits="userSpaceOnUse">
<stop stop-color="#17A7CF"/>
<stop offset="0.7" stop-color="#42C5E9"/>
</linearGradient>
<linearGradient id="paint17_linear_1207_9714" x1="36.7795" y1="36.7244" x2="36.7795" y2="34.188" gradientUnits="userSpaceOnUse">
<stop stop-color="#021738"/>
<stop offset="0.7" stop-color="#053584"/>
</linearGradient>
<linearGradient id="paint18_linear_1207_9714" x1="792.486" y1="1227.48" x2="792.486" y2="1150.68" gradientUnits="userSpaceOnUse">
<stop stop-color="#053584"/>
<stop offset="0.7" stop-color="#1D60D1"/>
</linearGradient>
<linearGradient id="paint19_linear_1207_9714" x1="46.6256" y1="36.6406" x2="44.2291" y2="23.0501" gradientUnits="userSpaceOnUse">
<stop stop-color="#005269"/>
<stop offset="0.7" stop-color="#42C5E9"/>
</linearGradient>
<linearGradient id="paint20_linear_1207_9714" x1="32.4925" y1="36.5376" x2="32.4925" y2="34.3598" gradientUnits="userSpaceOnUse">
<stop stop-color="#053584"/>
<stop offset="0.7" stop-color="#1D60D1"/>
</linearGradient>
<radialGradient id="paint21_radial_1207_9714" cx="0" cy="0" r="1" gradientUnits="userSpaceOnUse" gradientTransform="translate(28.1908 35.2302) scale(1.01382 3.51956)">
<stop stop-color="#743C1C"/>
<stop offset="1" stop-color="#401C02"/>
</radialGradient>
<radialGradient id="paint22_radial_1207_9714" cx="0" cy="0" r="1" gradientUnits="userSpaceOnUse" gradientTransform="translate(28.1908 35.2302) scale(1.01382 3.51956)">
<stop stop-color="#743C1C"/>
<stop offset="1" stop-color="#401C02"/>
</radialGradient>
<linearGradient id="paint23_linear_1207_9714" x1="13.8998" y1="13.4914" x2="2.48886" y2="-0.106593" gradientUnits="userSpaceOnUse">
<stop stop-color="#04265E"/>
<stop offset="0.7" stop-color="#1D60D1"/>
</linearGradient>
<linearGradient id="paint24_linear_1207_9714" x1="13.8959" y1="13.4909" x2="2.48495" y2="-0.107081" gradientUnits="userSpaceOnUse">
<stop stop-color="#04265E"/>
<stop offset="0.7" stop-color="#1D60D1"/>
</linearGradient>
</defs>
</svg>
