<svg width="22" height="22" viewBox="0 0 24 24" fill="none" xmlns="http://www.w3.org/2000/svg">
<path opacity="0.4" d="M19.3504 5.65995L13.0604 2.27C12.4004 1.91 11.6004 1.91 10.9304 2.27L4.64041 5.65995C4.18041 5.90995 3.90039 6.39998 3.90039 6.93998C3.90039 7.47998 4.18041 7.96995 4.64041 8.21995L10.9304 11.61C11.2604 11.79 11.6304 11.88 11.9904 11.88C12.3604 11.88 12.7204 11.79 13.0504 11.61L19.3404 8.21995C19.8004 7.96995 20.0804 7.47998 20.0804 6.93998C20.0904 6.39998 19.8104 5.90995 19.3504 5.65995Z" fill="#3454A4"/>
<path opacity="0.4" d="M9.9007 12.79L4.05069 9.86001C3.60069 9.63001 3.0807 9.66001 2.6507 9.92001C2.2207 10.18 1.9707 10.64 1.9707 11.14V16.67C1.9707 17.63 2.50069 18.49 3.36069 18.92L9.21069 21.8401C9.41069 21.9401 9.63071 21.99 9.85071 21.99C10.1107 21.99 10.3707 21.92 10.6007 21.77C11.0307 21.51 11.2807 21.05 11.2807 20.55V15.02C11.2907 14.08 10.7607 13.22 9.9007 12.79Z" fill="#3454A4"/>
<path opacity="0.4" d="M22.0309 11.15V15.74C22.0209 15.73 22.0109 15.71 22.0009 15.7C22.0009 15.69 21.991 15.68 21.981 15.67C21.941 15.61 21.8909 15.55 21.8409 15.5C21.8309 15.49 21.8209 15.47 21.8109 15.46C21.0009 14.56 19.8109 14 18.5009 14C17.2409 14 16.0909 14.52 15.2709 15.36C14.4809 16.17 14.0009 17.28 14.0009 18.5C14.0009 19.34 14.2409 20.14 14.6509 20.82C14.8209 21.11 15.031 21.37 15.261 21.61L14.791 21.85C14.591 21.95 14.3709 22 14.1509 22C13.8909 22 13.631 21.93 13.391 21.78C12.971 21.52 12.7109 21.06 12.7109 20.56V15.04C12.7109 14.08 13.241 13.22 14.101 12.79L19.951 9.87C20.401 9.64 20.921 9.66 21.351 9.93C21.771 10.19 22.0309 10.65 22.0309 11.15Z" fill="#3454A4"/>
<path d="M21.98 15.65C21.16 14.64 19.91 14 18.5 14C17.44 14 16.46 14.37 15.69 14.99C14.65 15.81 14 17.08 14 18.5C14 19.91 14.64 21.16 15.65 21.98C16.42 22.62 17.42 23 18.5 23C19.64 23 20.67 22.57 21.47 21.88C22.4 21.05 23 19.85 23 18.5C23 17.42 22.62 16.42 21.98 15.65ZM19.53 18.78C19.53 19.04 19.39 19.29 19.17 19.42L17.76 20.26C17.64 20.33 17.51 20.37 17.37 20.37C17.12 20.37 16.87 20.24 16.73 20.01C16.52 19.65 16.63 19.19 16.99 18.98L18.03 18.36V17.1C18.03 16.69 18.37 16.35 18.78 16.35C19.19 16.35 19.53 16.69 19.53 17.1V18.78Z" fill="#3454A4"/>
</svg>
