<svg width="214" height="223" viewBox="0 0 214 223" fill="none" xmlns="http://www.w3.org/2000/svg">
<g filter="url(#filter0_i_1_31)">
<path fill-rule="evenodd" clip-rule="evenodd" d="M212.54 1.46582C213.042 1.96824 213.373 2.61658 213.485 3.31823C214.871 19.706 213.458 36.2101 209.306 52.1236L162.32 4.63274C178.092 0.523747 194.449 -0.866852 210.688 0.52069C211.389 0.632609 212.038 0.963403 212.54 1.46582ZM92.719 50.1013L47.2168 122.837C46.81 123.484 46.6351 124.25 46.7208 125.01C46.8066 125.769 47.1478 126.477 47.6887 127.017L86.9891 166.317C87.3013 166.636 87.6735 166.889 88.0843 167.063C88.4951 167.236 88.9362 167.327 89.3822 167.329C90.0183 167.332 90.6407 167.144 91.1686 166.789L164.141 121.085C184.711 105.683 199.836 84.1234 207.317 59.5388L154.905 6.68884C130.076 14.1543 108.285 29.3664 92.719 50.1013Z" fill="url(#paint0_linear_1_31)"/>
</g>
<g filter="url(#filter1_bdiii_1_31)">
<path d="M-nan -nanL53.8239 154.992L36.9712 171.845C36.6553 172.158 36.4046 172.531 36.2335 172.942C36.0623 173.353 35.9742 173.793 35.9742 174.238C35.9742 174.683 36.0623 175.124 36.2335 175.534C36.4046 175.945 36.6553 176.318 36.9712 176.631C37.2862 176.944 37.6597 177.191 38.0703 177.358C38.481 177.526 38.9207 177.611 39.3643 177.609C40.2485 177.605 41.0959 177.254 41.7237 176.631L58.5764 159.778C58.8923 159.465 59.143 159.092 59.3141 158.682C59.4853 158.271 59.5734 157.83 59.5734 157.385C59.5734 156.94 59.4853 156.5 59.3141 156.089C59.143 155.678 58.8923 155.306 58.5764 154.992C57.9449 154.365 57.0906 154.012 56.2001 154.012C55.3097 154.012 54.4554 154.365 53.8239 154.992L-nan -nanZ" fill="url(#paint1_linear_1_31)" fill-opacity="0.21"/>
<path d="M-nan -nanL53.8239 154.992L36.9712 171.845C36.6553 172.158 36.4046 172.531 36.2335 172.942C36.0623 173.353 35.9742 173.793 35.9742 174.238C35.9742 174.683 36.0623 175.124 36.2335 175.534C36.4046 175.945 36.6553 176.318 36.9712 176.631C37.2862 176.944 37.6597 177.191 38.0703 177.358C38.481 177.526 38.9207 177.611 39.3643 177.609C40.2485 177.605 41.0959 177.254 41.7237 176.631L58.5764 159.778C58.8923 159.465 59.143 159.092 59.3141 158.682C59.4853 158.271 59.5734 157.83 59.5734 157.385C59.5734 156.94 59.4853 156.5 59.3141 156.089C59.143 155.678 58.8923 155.306 58.5764 154.992C57.9449 154.365 57.0906 154.012 56.2001 154.012C55.3097 154.012 54.4554 154.365 53.8239 154.992L-nan -nanZ" fill="#D7FFC2" fill-opacity="0.1"/>
</g>
<g filter="url(#filter2_bdii_1_31)">
<path fill-rule="evenodd" clip-rule="evenodd" d="M52.6335 124.4C52.6594 124.374 52.6635 124.333 52.6431 124.303C52.624 124.274 52.6262 124.236 52.6491 124.21C52.9441 123.877 53.3022 123.606 53.7029 123.412C54.121 123.21 54.5765 123.096 55.0407 123.078C55.5049 123.061 55.9678 123.139 56.4003 123.308C56.8328 123.478 57.2256 123.735 57.5541 124.063C57.8826 124.392 58.1396 124.784 58.3091 125.217C58.4785 125.65 58.5567 126.112 58.5388 126.577C58.5209 127.041 58.4072 127.496 58.2049 127.914C58.0026 128.333 57.716 128.704 57.3632 129.007L49.8469 136.523C49.2497 137.187 48.4132 137.587 47.5212 137.635C46.8546 137.632 46.2038 137.432 45.6511 137.059C45.0984 136.687 44.6686 136.158 44.4161 135.542C44.1635 134.925 44.0996 134.247 44.2323 133.593C44.3651 132.94 44.6885 132.341 45.1618 131.872L52.6335 124.4ZM16.5459 191.631L39.7352 168.34C40.3699 167.692 41.2361 167.323 42.1431 167.314C43.0502 167.304 43.9239 167.655 44.5719 168.29C45.22 168.925 45.5895 169.791 45.5989 170.698C45.6084 171.605 45.2572 172.479 44.6225 173.127L21.2984 196.417C20.6637 197.047 19.8047 197.4 18.9103 197.396C18.0158 197.393 17.1593 197.035 16.5291 196.4C15.8989 195.766 15.5466 194.906 15.5498 194.012C15.5529 193.118 15.9113 192.261 16.5459 191.631ZM66.3352 143.997C66.3556 144.027 66.3515 144.068 66.3256 144.094L58.8539 151.565C58.3806 152.035 58.0572 152.634 57.9244 153.287C57.7917 153.941 57.8556 154.619 58.1082 155.235C58.3607 155.852 58.7905 156.381 59.3432 156.753C59.8959 157.126 60.5467 157.326 61.2133 157.329C62.1053 157.281 62.9418 156.881 63.539 156.217L71.0553 148.7C71.4081 148.398 71.6947 148.026 71.897 147.608C72.0993 147.19 72.213 146.735 72.2309 146.271C72.2488 145.806 72.1706 145.343 72.0012 144.911C71.8317 144.478 71.5747 144.086 71.2462 143.757C70.9177 143.429 70.5249 143.172 70.0924 143.002C69.6599 142.833 69.197 142.754 68.7328 142.772C68.2686 142.79 67.8131 142.904 67.395 143.106C66.9943 143.3 66.6362 143.571 66.3412 143.904C66.3183 143.93 66.3161 143.968 66.3352 143.997ZM84.1829 155.947C84.2077 155.922 84.2471 155.918 84.2766 155.937C84.3058 155.957 84.3446 155.953 84.37 155.929C85.0002 155.325 85.8406 154.988 86.7149 154.992C87.6094 154.995 88.4659 155.353 89.0961 155.988C89.7263 156.622 90.0786 157.481 90.0754 158.376C90.0723 159.27 89.7139 160.127 89.0792 160.757L81.563 168.273C80.9352 168.896 80.0878 169.247 79.2036 169.251C78.76 169.253 78.3203 169.168 77.9096 169.001C77.499 168.833 77.1254 168.586 76.8105 168.273C76.4946 167.96 76.2438 167.587 76.0727 167.176C75.9016 166.766 75.8135 166.325 75.8135 165.88C75.8135 165.435 75.9016 164.995 76.0727 164.584C76.2438 164.173 76.4946 163.8 76.8105 163.487L84.1829 155.947ZM62.149 178.014L48.2961 191.833C47.9802 192.147 47.7295 192.519 47.5583 192.93C47.3872 193.341 47.2991 193.781 47.2991 194.226C47.2991 194.671 47.3872 195.112 47.5583 195.523C47.7295 195.933 47.9802 196.306 48.2961 196.619C48.6111 196.932 48.9846 197.179 49.3952 197.347C49.8059 197.514 50.2456 197.599 50.6892 197.597C51.1328 197.599 51.5725 197.514 51.9832 197.347C52.3938 197.179 52.7673 196.932 53.0823 196.619L66.9015 182.767C67.4536 182.122 67.7422 181.292 67.7094 180.444C67.6767 179.596 67.325 178.791 66.7247 178.191C66.1245 177.591 65.3198 177.239 64.4715 177.206C63.6232 177.173 62.7938 177.462 62.149 178.014ZM12.1804 163.34L26.0333 149.521C26.6781 148.968 27.5075 148.68 28.3557 148.713C29.204 148.745 30.0087 149.097 30.609 149.697C31.2092 150.298 31.5609 151.102 31.5937 151.951C31.6264 152.799 31.3379 153.628 30.7857 154.273L16.9665 168.126C16.6516 168.438 16.2781 168.685 15.8674 168.853C15.4568 169.021 15.017 169.106 14.5734 169.103C14.1299 169.106 13.6901 169.021 13.2795 168.853C12.8688 168.685 12.4953 168.438 12.1804 168.126C11.8644 167.813 11.6137 167.44 11.4426 167.029C11.2715 166.618 11.1834 166.178 11.1834 165.733C11.1834 165.288 11.2715 164.847 11.4426 164.437C11.6137 164.026 11.8644 163.653 12.1804 163.34Z" fill="url(#paint2_linear_1_31)" fill-opacity="0.1"/>
</g>
<g filter="url(#filter3_i_1_31)">
<path fill-rule="evenodd" clip-rule="evenodd" d="M212.54 1.46582C213.042 1.96824 213.373 2.61658 213.485 3.31823C214.871 19.706 213.458 36.2101 209.306 52.1236L162.32 4.63274C178.092 0.523747 194.449 -0.866852 210.688 0.52069C211.389 0.632609 212.038 0.963403 212.54 1.46582ZM92.719 50.1013L47.2168 122.837C46.8099 123.484 46.635 124.25 46.7208 125.01C46.8065 125.769 47.1478 126.477 47.6886 127.017L86.9891 166.317C87.3012 166.636 87.6735 166.889 88.0843 167.063C88.4951 167.236 88.9362 167.327 89.3821 167.329C90.0182 167.332 90.6407 167.144 91.1685 166.789L164.141 121.085C184.711 105.683 199.836 84.1234 207.317 59.5388L154.905 6.68884C130.076 14.1543 108.285 29.3664 92.719 50.1013Z" fill="url(#paint3_linear_1_31)"/>
</g>
<g filter="url(#filter4_biii_1_31)">
<path d="M105.117 154.422C103.566 155.701 102.949 157.78 103.43 159.732C107.413 175.915 105.294 193.045 97.4065 207.813C97.001 208.472 96.8342 209.25 96.934 210.016C97.0338 210.783 97.3942 211.492 97.9548 212.025C98.314 212.357 98.7413 212.608 99.207 212.758C99.6728 212.909 100.166 212.956 100.652 212.897C101.212 212.827 101.746 212.618 102.204 212.287C122.114 198.008 163.582 162.692 157.429 120.132C156.91 116.546 152.688 115.182 149.894 117.487L105.117 154.422Z" fill="url(#paint4_linear_1_31)" fill-opacity="0.09"/>
<path d="M105.117 154.422C103.566 155.701 102.949 157.78 103.43 159.732C107.413 175.915 105.294 193.045 97.4065 207.813C97.001 208.472 96.8342 209.25 96.934 210.016C97.0338 210.783 97.3942 211.492 97.9548 212.025C98.314 212.357 98.7413 212.608 99.207 212.758C99.6728 212.909 100.166 212.956 100.652 212.897C101.212 212.827 101.746 212.618 102.204 212.287C122.114 198.008 163.582 162.692 157.429 120.132C156.91 116.546 152.688 115.182 149.894 117.487L105.117 154.422Z" fill="#506943" fill-opacity="0.05"/>
</g>
<g filter="url(#filter5_biii_1_31)">
<path d="M61.0666 112.373C59.7522 113.894 57.6591 114.463 55.7188 113.937C39.632 109.583 22.4578 111.307 7.51131 118.853C6.84381 119.243 6.06241 119.392 5.29815 119.275C4.53389 119.157 3.83326 118.781 3.31373 118.208C2.98954 117.841 2.7491 117.408 2.60918 116.939C2.46925 116.47 2.43319 115.976 2.50347 115.492C2.58644 114.933 2.80838 114.404 3.14895 113.954C17.883 94.3772 54.1433 53.7332 96.5505 60.8641C100.123 61.4649 101.39 65.7168 99.0214 68.4579L61.0666 112.373Z" fill="url(#paint5_linear_1_31)" fill-opacity="0.09"/>
<path d="M61.0666 112.373C59.7522 113.894 57.6591 114.463 55.7188 113.937C39.632 109.583 22.4578 111.307 7.51131 118.853C6.84381 119.243 6.06241 119.392 5.29815 119.275C4.53389 119.157 3.83326 118.781 3.31373 118.208C2.98954 117.841 2.7491 117.408 2.60918 116.939C2.46925 116.47 2.43319 115.976 2.50347 115.492C2.58644 114.933 2.80838 114.404 3.14895 113.954C17.883 94.3772 54.1433 53.7332 96.5505 60.8641C100.123 61.4649 101.39 65.7168 99.0214 68.4579L61.0666 112.373Z" fill="#506943" fill-opacity="0.05"/>
</g>
<g filter="url(#filter6_bdiii_1_31)">
<path d="M-nan -nanL53.8239 154.992L36.9712 171.845C36.6553 172.158 36.4045 172.531 36.2334 172.942C36.0623 173.353 35.9742 173.793 35.9742 174.238C35.9742 174.683 36.0623 175.124 36.2334 175.534C36.4045 175.945 36.6553 176.318 36.9712 176.631C37.2862 176.944 37.6597 177.191 38.0703 177.358C38.481 177.526 38.9207 177.611 39.3643 177.609C40.2485 177.605 41.0959 177.254 41.7237 176.631L58.5763 159.778C58.8923 159.465 59.143 159.092 59.3141 158.682C59.4852 158.271 59.5733 157.83 59.5733 157.385C59.5733 156.94 59.4852 156.5 59.3141 156.089C59.143 155.678 58.8923 155.306 58.5763 154.992C57.9448 154.365 57.0906 154.012 56.2001 154.012C55.3097 154.012 54.4554 154.365 53.8239 154.992L-nan -nanZ" fill="url(#paint6_linear_1_31)" fill-opacity="0.21"/>
<path d="M-nan -nanL53.8239 154.992L36.9712 171.845C36.6553 172.158 36.4045 172.531 36.2334 172.942C36.0623 173.353 35.9742 173.793 35.9742 174.238C35.9742 174.683 36.0623 175.124 36.2334 175.534C36.4045 175.945 36.6553 176.318 36.9712 176.631C37.2862 176.944 37.6597 177.191 38.0703 177.358C38.481 177.526 38.9207 177.611 39.3643 177.609C40.2485 177.605 41.0959 177.254 41.7237 176.631L58.5763 159.778C58.8923 159.465 59.143 159.092 59.3141 158.682C59.4852 158.271 59.5733 157.83 59.5733 157.385C59.5733 156.94 59.4852 156.5 59.3141 156.089C59.143 155.678 58.8923 155.306 58.5763 154.992C57.9448 154.365 57.0906 154.012 56.2001 154.012C55.3097 154.012 54.4554 154.365 53.8239 154.992L-nan -nanZ" fill="#D7FFC2" fill-opacity="0.1"/>
</g>
<g filter="url(#filter7_bdii_1_31)">
<path fill-rule="evenodd" clip-rule="evenodd" d="M52.6335 124.4C52.6594 124.374 52.6635 124.333 52.6431 124.303C52.624 124.274 52.6262 124.236 52.6491 124.21C52.9441 123.877 53.3022 123.606 53.7029 123.412C54.121 123.21 54.5765 123.096 55.0407 123.078C55.5049 123.061 55.9678 123.139 56.4003 123.308C56.8328 123.478 57.2256 123.735 57.5541 124.063C57.8826 124.392 58.1396 124.784 58.3091 125.217C58.4785 125.65 58.5567 126.112 58.5388 126.577C58.5209 127.041 58.4072 127.496 58.2049 127.914C58.0026 128.333 57.716 128.704 57.3632 129.007L49.8469 136.523C49.2497 137.187 48.4132 137.587 47.5212 137.635C46.8546 137.632 46.2038 137.432 45.6511 137.059C45.0984 136.687 44.6686 136.158 44.4161 135.542C44.1635 134.925 44.0996 134.247 44.2323 133.593C44.3651 132.94 44.6885 132.341 45.1618 131.872L52.6335 124.4ZM16.5459 191.631L39.7352 168.34C40.3699 167.692 41.2361 167.323 42.1431 167.314C43.0502 167.304 43.9239 167.655 44.5719 168.29C45.22 168.925 45.5895 169.791 45.5989 170.698C45.6084 171.605 45.2572 172.479 44.6225 173.127L21.2984 196.417C20.6637 197.047 19.8047 197.4 18.9103 197.396C18.0158 197.393 17.1593 197.035 16.5291 196.4C15.8989 195.766 15.5466 194.906 15.5498 194.012C15.5529 193.118 15.9113 192.261 16.5459 191.631ZM66.3352 143.997C66.3556 144.027 66.3515 144.068 66.3256 144.094L58.8539 151.565C58.3806 152.035 58.0572 152.634 57.9244 153.287C57.7917 153.941 57.8556 154.619 58.1082 155.235C58.3607 155.852 58.7905 156.381 59.3432 156.753C59.8959 157.126 60.5467 157.326 61.2133 157.329C62.1053 157.281 62.9418 156.881 63.539 156.217L71.0553 148.7C71.4081 148.398 71.6947 148.026 71.897 147.608C72.0993 147.19 72.213 146.735 72.2309 146.271C72.2488 145.806 72.1706 145.343 72.0012 144.911C71.8317 144.478 71.5747 144.086 71.2462 143.757C70.9177 143.429 70.5249 143.172 70.0924 143.002C69.6599 142.833 69.197 142.754 68.7328 142.772C68.2686 142.79 67.8131 142.904 67.395 143.106C66.9943 143.3 66.6362 143.571 66.3412 143.904C66.3183 143.93 66.3161 143.968 66.3352 143.997ZM84.1829 155.947C84.2077 155.922 84.2471 155.918 84.2766 155.937C84.3058 155.957 84.3446 155.953 84.37 155.929C85.0002 155.325 85.8406 154.988 86.7149 154.992C87.6094 154.995 88.4659 155.353 89.0961 155.988C89.7263 156.622 90.0786 157.481 90.0754 158.376C90.0723 159.27 89.7139 160.127 89.0792 160.757L81.563 168.273C80.9352 168.896 80.0878 169.247 79.2036 169.251C78.76 169.253 78.3203 169.168 77.9096 169.001C77.499 168.833 77.1254 168.586 76.8105 168.273C76.4946 167.96 76.2438 167.587 76.0727 167.176C75.9016 166.766 75.8135 166.325 75.8135 165.88C75.8135 165.435 75.9016 164.995 76.0727 164.584C76.2438 164.173 76.4946 163.8 76.8105 163.487L84.1829 155.947ZM62.149 178.014L48.2961 191.833C47.9802 192.147 47.7295 192.519 47.5583 192.93C47.3872 193.341 47.2991 193.781 47.2991 194.226C47.2991 194.671 47.3872 195.112 47.5583 195.523C47.7295 195.933 47.9802 196.306 48.2961 196.619C48.6111 196.932 48.9846 197.179 49.3952 197.347C49.8059 197.514 50.2456 197.599 50.6892 197.597C51.1328 197.599 51.5725 197.514 51.9832 197.347C52.3938 197.179 52.7673 196.932 53.0823 196.619L66.9015 182.767C67.4536 182.122 67.7422 181.292 67.7094 180.444C67.6767 179.596 67.325 178.791 66.7247 178.191C66.1245 177.591 65.3198 177.239 64.4715 177.206C63.6232 177.173 62.7938 177.462 62.149 178.014ZM12.1804 163.34L26.0333 149.521C26.6781 148.968 27.5075 148.68 28.3557 148.713C29.204 148.745 30.0087 149.097 30.609 149.697C31.2092 150.298 31.5609 151.102 31.5937 151.951C31.6264 152.799 31.3379 153.628 30.7857 154.273L16.9665 168.126C16.6516 168.438 16.2781 168.685 15.8674 168.853C15.4568 169.021 15.017 169.106 14.5734 169.103C14.1299 169.106 13.6901 169.021 13.2795 168.853C12.8688 168.685 12.4953 168.438 12.1804 168.126C11.8644 167.813 11.6137 167.44 11.4426 167.029C11.2715 166.618 11.1834 166.178 11.1834 165.733C11.1834 165.288 11.2715 164.847 11.4426 164.437C11.6137 164.026 11.8644 163.653 12.1804 163.34Z" fill="url(#paint7_linear_1_31)" fill-opacity="0.1"/>
</g>
<g filter="url(#filter8_bdii_1_31)">
<circle cx="150.356" cy="60.2513" r="25.4583" fill="url(#paint8_linear_1_31)" fill-opacity="0.21"/>
<circle cx="150.356" cy="60.2513" r="25.4583" fill="#D8FFC5" fill-opacity="0.26"/>
</g>
<defs>
<filter id="filter0_i_1_31" x="46.6995" y="-3" width="176.301" height="170.329" filterUnits="userSpaceOnUse" color-interpolation-filters="sRGB">
<feFlood flood-opacity="0" result="BackgroundImageFix"/>
<feBlend mode="normal" in="SourceGraphic" in2="BackgroundImageFix" result="shape"/>
<feColorMatrix in="SourceAlpha" type="matrix" values="0 0 0 0 0 0 0 0 0 0 0 0 0 0 0 0 0 0 127 0" result="hardAlpha"/>
<feOffset dx="9" dy="-3"/>
<feGaussianBlur stdDeviation="10"/>
<feComposite in2="hardAlpha" operator="arithmetic" k2="-1" k3="1"/>
<feColorMatrix type="matrix" values="0 0 0 0 0 0 0 0 0 0 0 0 0 0 0 0 0 0 0.17 0"/>
<feBlend mode="normal" in2="shape" result="effect1_innerShadow_1_31"/>
</filter>
<filter id="filter1_bdiii_1_31" x="15.9742" y="134.012" width="72.5991" height="68.5965" filterUnits="userSpaceOnUse" color-interpolation-filters="sRGB">
<feFlood flood-opacity="0" result="BackgroundImageFix"/>
<feGaussianBlur in="BackgroundImageFix" stdDeviation="10"/>
<feComposite in2="SourceAlpha" operator="in" result="effect1_backgroundBlur_1_31"/>
<feColorMatrix in="SourceAlpha" type="matrix" values="0 0 0 0 0 0 0 0 0 0 0 0 0 0 0 0 0 0 127 0" result="hardAlpha"/>
<feOffset dx="9" dy="5"/>
<feGaussianBlur stdDeviation="10"/>
<feColorMatrix type="matrix" values="0 0 0 0 0.0690278 0 0 0 0 0.295833 0 0 0 0 0.11166 0 0 0 0.08 0"/>
<feBlend mode="normal" in2="effect1_backgroundBlur_1_31" result="effect2_dropShadow_1_31"/>
<feBlend mode="normal" in="SourceGraphic" in2="effect2_dropShadow_1_31" result="shape"/>
<feColorMatrix in="SourceAlpha" type="matrix" values="0 0 0 0 0 0 0 0 0 0 0 0 0 0 0 0 0 0 127 0" result="hardAlpha"/>
<feOffset dx="-10" dy="10"/>
<feGaussianBlur stdDeviation="5"/>
<feComposite in2="hardAlpha" operator="arithmetic" k2="-1" k3="1"/>
<feColorMatrix type="matrix" values="0 0 0 0 1 0 0 0 0 1 0 0 0 0 1 0 0 0 0.15 0"/>
<feBlend mode="normal" in2="shape" result="effect3_innerShadow_1_31"/>
<feColorMatrix in="SourceAlpha" type="matrix" values="0 0 0 0 0 0 0 0 0 0 0 0 0 0 0 0 0 0 127 0" result="hardAlpha"/>
<feOffset dy="-10"/>
<feGaussianBlur stdDeviation="5"/>
<feComposite in2="hardAlpha" operator="arithmetic" k2="-1" k3="1"/>
<feColorMatrix type="matrix" values="0 0 0 0 0.156863 0 0 0 0 0.67451 0 0 0 0 0.25098 0 0 0 0.3 0"/>
<feBlend mode="normal" in2="effect3_innerShadow_1_31" result="effect4_innerShadow_1_31"/>
<feColorMatrix in="SourceAlpha" type="matrix" values="0 0 0 0 0 0 0 0 0 0 0 0 0 0 0 0 0 0 127 0" result="hardAlpha"/>
<feOffset dx="-3" dy="6"/>
<feGaussianBlur stdDeviation="7.5"/>
<feComposite in2="hardAlpha" operator="arithmetic" k2="-1" k3="1"/>
<feColorMatrix type="matrix" values="0 0 0 0 0.0770313 0 0 0 0 0.6375 0 0 0 0 0.178935 0 0 0 0.09 0"/>
<feBlend mode="normal" in2="effect4_innerShadow_1_31" result="effect5_innerShadow_1_31"/>
</filter>
<filter id="filter2_bdii_1_31" x="-8.81664" y="103.076" width="127.892" height="119.521" filterUnits="userSpaceOnUse" color-interpolation-filters="sRGB">
<feFlood flood-opacity="0" result="BackgroundImageFix"/>
<feGaussianBlur in="BackgroundImageFix" stdDeviation="10"/>
<feComposite in2="SourceAlpha" operator="in" result="effect1_backgroundBlur_1_31"/>
<feColorMatrix in="SourceAlpha" type="matrix" values="0 0 0 0 0 0 0 0 0 0 0 0 0 0 0 0 0 0 127 0" result="hardAlpha"/>
<feOffset dx="9" dy="5"/>
<feGaussianBlur stdDeviation="10"/>
<feColorMatrix type="matrix" values="0 0 0 0 0.0690278 0 0 0 0 0.295833 0 0 0 0 0.11166 0 0 0 0.08 0"/>
<feBlend mode="normal" in2="effect1_backgroundBlur_1_31" result="effect2_dropShadow_1_31"/>
<feBlend mode="normal" in="SourceGraphic" in2="effect2_dropShadow_1_31" result="shape"/>
<feColorMatrix in="SourceAlpha" type="matrix" values="0 0 0 0 0 0 0 0 0 0 0 0 0 0 0 0 0 0 127 0" result="hardAlpha"/>
<feOffset/>
<feGaussianBlur stdDeviation="5"/>
<feComposite in2="hardAlpha" operator="arithmetic" k2="-1" k3="1"/>
<feColorMatrix type="matrix" values="0 0 0 0 0.156863 0 0 0 0 0.67451 0 0 0 0 0.25098 0 0 0 0.2 0"/>
<feBlend mode="normal" in2="shape" result="effect3_innerShadow_1_31"/>
<feColorMatrix in="SourceAlpha" type="matrix" values="0 0 0 0 0 0 0 0 0 0 0 0 0 0 0 0 0 0 127 0" result="hardAlpha"/>
<feOffset dx="-3" dy="6"/>
<feGaussianBlur stdDeviation="7.5"/>
<feComposite in2="hardAlpha" operator="arithmetic" k2="-1" k3="1"/>
<feColorMatrix type="matrix" values="0 0 0 0 0.0770313 0 0 0 0 0.6375 0 0 0 0 0.178935 0 0 0 0.09 0"/>
<feBlend mode="normal" in2="effect3_innerShadow_1_31" result="effect4_innerShadow_1_31"/>
</filter>
<filter id="filter3_i_1_31" x="46.6995" y="-3" width="176.301" height="170.329" filterUnits="userSpaceOnUse" color-interpolation-filters="sRGB">
<feFlood flood-opacity="0" result="BackgroundImageFix"/>
<feBlend mode="normal" in="SourceGraphic" in2="BackgroundImageFix" result="shape"/>
<feColorMatrix in="SourceAlpha" type="matrix" values="0 0 0 0 0 0 0 0 0 0 0 0 0 0 0 0 0 0 127 0" result="hardAlpha"/>
<feOffset dx="9" dy="-3"/>
<feGaussianBlur stdDeviation="10"/>
<feComposite in2="hardAlpha" operator="arithmetic" k2="-1" k3="1"/>
<feColorMatrix type="matrix" values="0 0 0 0 0 0 0 0 0 0 0 0 0 0 0 0 0 0 0.17 0"/>
<feBlend mode="normal" in2="shape" result="effect1_innerShadow_1_31"/>
</filter>
<filter id="filter4_biii_1_31" x="76.9058" y="96.3513" width="101.139" height="136.571" filterUnits="userSpaceOnUse" color-interpolation-filters="sRGB">
<feFlood flood-opacity="0" result="BackgroundImageFix"/>
<feGaussianBlur in="BackgroundImageFix" stdDeviation="10"/>
<feComposite in2="SourceAlpha" operator="in" result="effect1_backgroundBlur_1_31"/>
<feBlend mode="normal" in="SourceGraphic" in2="effect1_backgroundBlur_1_31" result="shape"/>
<feColorMatrix in="SourceAlpha" type="matrix" values="0 0 0 0 0 0 0 0 0 0 0 0 0 0 0 0 0 0 127 0" result="hardAlpha"/>
<feOffset dx="-10" dy="10"/>
<feGaussianBlur stdDeviation="5"/>
<feComposite in2="hardAlpha" operator="arithmetic" k2="-1" k3="1"/>
<feColorMatrix type="matrix" values="0 0 0 0 1 0 0 0 0 1 0 0 0 0 1 0 0 0 0.15 0"/>
<feBlend mode="normal" in2="shape" result="effect2_innerShadow_1_31"/>
<feColorMatrix in="SourceAlpha" type="matrix" values="0 0 0 0 0 0 0 0 0 0 0 0 0 0 0 0 0 0 127 0" result="hardAlpha"/>
<feOffset dy="-10"/>
<feGaussianBlur stdDeviation="5"/>
<feComposite in2="hardAlpha" operator="arithmetic" k2="-1" k3="1"/>
<feColorMatrix type="matrix" values="0 0 0 0 0.156863 0 0 0 0 0.67451 0 0 0 0 0.25098 0 0 0 0.05 0"/>
<feBlend mode="normal" in2="effect2_innerShadow_1_31" result="effect3_innerShadow_1_31"/>
<feColorMatrix in="SourceAlpha" type="matrix" values="0 0 0 0 0 0 0 0 0 0 0 0 0 0 0 0 0 0 127 0" result="hardAlpha"/>
<feOffset dx="-3" dy="6"/>
<feGaussianBlur stdDeviation="7.5"/>
<feComposite in2="hardAlpha" operator="arithmetic" k2="-1" k3="1"/>
<feColorMatrix type="matrix" values="0 0 0 0 0.0770313 0 0 0 0 0.6375 0 0 0 0 0.178935 0 0 0 0.2 0"/>
<feBlend mode="normal" in2="effect3_innerShadow_1_31" result="effect4_innerShadow_1_31"/>
</filter>
<filter id="filter5_biii_1_31" x="-17.5314" y="40.0346" width="137.761" height="99.2791" filterUnits="userSpaceOnUse" color-interpolation-filters="sRGB">
<feFlood flood-opacity="0" result="BackgroundImageFix"/>
<feGaussianBlur in="BackgroundImageFix" stdDeviation="10"/>
<feComposite in2="SourceAlpha" operator="in" result="effect1_backgroundBlur_1_31"/>
<feBlend mode="normal" in="SourceGraphic" in2="effect1_backgroundBlur_1_31" result="shape"/>
<feColorMatrix in="SourceAlpha" type="matrix" values="0 0 0 0 0 0 0 0 0 0 0 0 0 0 0 0 0 0 127 0" result="hardAlpha"/>
<feOffset dx="-10" dy="10"/>
<feGaussianBlur stdDeviation="5"/>
<feComposite in2="hardAlpha" operator="arithmetic" k2="-1" k3="1"/>
<feColorMatrix type="matrix" values="0 0 0 0 1 0 0 0 0 1 0 0 0 0 1 0 0 0 0.15 0"/>
<feBlend mode="normal" in2="shape" result="effect2_innerShadow_1_31"/>
<feColorMatrix in="SourceAlpha" type="matrix" values="0 0 0 0 0 0 0 0 0 0 0 0 0 0 0 0 0 0 127 0" result="hardAlpha"/>
<feOffset dy="-10"/>
<feGaussianBlur stdDeviation="5"/>
<feComposite in2="hardAlpha" operator="arithmetic" k2="-1" k3="1"/>
<feColorMatrix type="matrix" values="0 0 0 0 0.156863 0 0 0 0 0.67451 0 0 0 0 0.25098 0 0 0 0.05 0"/>
<feBlend mode="normal" in2="effect2_innerShadow_1_31" result="effect3_innerShadow_1_31"/>
<feColorMatrix in="SourceAlpha" type="matrix" values="0 0 0 0 0 0 0 0 0 0 0 0 0 0 0 0 0 0 127 0" result="hardAlpha"/>
<feOffset dx="-3" dy="6"/>
<feGaussianBlur stdDeviation="7.5"/>
<feComposite in2="hardAlpha" operator="arithmetic" k2="-1" k3="1"/>
<feColorMatrix type="matrix" values="0 0 0 0 0.0770313 0 0 0 0 0.6375 0 0 0 0 0.178935 0 0 0 0.2 0"/>
<feBlend mode="normal" in2="effect3_innerShadow_1_31" result="effect4_innerShadow_1_31"/>
</filter>
<filter id="filter6_bdiii_1_31" x="15.9742" y="134.012" width="72.5991" height="68.5965" filterUnits="userSpaceOnUse" color-interpolation-filters="sRGB">
<feFlood flood-opacity="0" result="BackgroundImageFix"/>
<feGaussianBlur in="BackgroundImageFix" stdDeviation="10"/>
<feComposite in2="SourceAlpha" operator="in" result="effect1_backgroundBlur_1_31"/>
<feColorMatrix in="SourceAlpha" type="matrix" values="0 0 0 0 0 0 0 0 0 0 0 0 0 0 0 0 0 0 127 0" result="hardAlpha"/>
<feOffset dx="9" dy="5"/>
<feGaussianBlur stdDeviation="10"/>
<feColorMatrix type="matrix" values="0 0 0 0 0.0690278 0 0 0 0 0.295833 0 0 0 0 0.11166 0 0 0 0.08 0"/>
<feBlend mode="normal" in2="effect1_backgroundBlur_1_31" result="effect2_dropShadow_1_31"/>
<feBlend mode="normal" in="SourceGraphic" in2="effect2_dropShadow_1_31" result="shape"/>
<feColorMatrix in="SourceAlpha" type="matrix" values="0 0 0 0 0 0 0 0 0 0 0 0 0 0 0 0 0 0 127 0" result="hardAlpha"/>
<feOffset dx="-10" dy="10"/>
<feGaussianBlur stdDeviation="5"/>
<feComposite in2="hardAlpha" operator="arithmetic" k2="-1" k3="1"/>
<feColorMatrix type="matrix" values="0 0 0 0 1 0 0 0 0 1 0 0 0 0 1 0 0 0 0.15 0"/>
<feBlend mode="normal" in2="shape" result="effect3_innerShadow_1_31"/>
<feColorMatrix in="SourceAlpha" type="matrix" values="0 0 0 0 0 0 0 0 0 0 0 0 0 0 0 0 0 0 127 0" result="hardAlpha"/>
<feOffset dy="-10"/>
<feGaussianBlur stdDeviation="5"/>
<feComposite in2="hardAlpha" operator="arithmetic" k2="-1" k3="1"/>
<feColorMatrix type="matrix" values="0 0 0 0 0.156863 0 0 0 0 0.67451 0 0 0 0 0.25098 0 0 0 0.3 0"/>
<feBlend mode="normal" in2="effect3_innerShadow_1_31" result="effect4_innerShadow_1_31"/>
<feColorMatrix in="SourceAlpha" type="matrix" values="0 0 0 0 0 0 0 0 0 0 0 0 0 0 0 0 0 0 127 0" result="hardAlpha"/>
<feOffset dx="-3" dy="6"/>
<feGaussianBlur stdDeviation="7.5"/>
<feComposite in2="hardAlpha" operator="arithmetic" k2="-1" k3="1"/>
<feColorMatrix type="matrix" values="0 0 0 0 0.0770313 0 0 0 0 0.6375 0 0 0 0 0.178935 0 0 0 0.09 0"/>
<feBlend mode="normal" in2="effect4_innerShadow_1_31" result="effect5_innerShadow_1_31"/>
</filter>
<filter id="filter7_bdii_1_31" x="-8.81664" y="103.076" width="127.892" height="119.521" filterUnits="userSpaceOnUse" color-interpolation-filters="sRGB">
<feFlood flood-opacity="0" result="BackgroundImageFix"/>
<feGaussianBlur in="BackgroundImageFix" stdDeviation="10"/>
<feComposite in2="SourceAlpha" operator="in" result="effect1_backgroundBlur_1_31"/>
<feColorMatrix in="SourceAlpha" type="matrix" values="0 0 0 0 0 0 0 0 0 0 0 0 0 0 0 0 0 0 127 0" result="hardAlpha"/>
<feOffset dx="9" dy="5"/>
<feGaussianBlur stdDeviation="10"/>
<feColorMatrix type="matrix" values="0 0 0 0 0.0690278 0 0 0 0 0.295833 0 0 0 0 0.11166 0 0 0 0.08 0"/>
<feBlend mode="normal" in2="effect1_backgroundBlur_1_31" result="effect2_dropShadow_1_31"/>
<feBlend mode="normal" in="SourceGraphic" in2="effect2_dropShadow_1_31" result="shape"/>
<feColorMatrix in="SourceAlpha" type="matrix" values="0 0 0 0 0 0 0 0 0 0 0 0 0 0 0 0 0 0 127 0" result="hardAlpha"/>
<feOffset/>
<feGaussianBlur stdDeviation="5"/>
<feComposite in2="hardAlpha" operator="arithmetic" k2="-1" k3="1"/>
<feColorMatrix type="matrix" values="0 0 0 0 0.156863 0 0 0 0 0.67451 0 0 0 0 0.25098 0 0 0 0.2 0"/>
<feBlend mode="normal" in2="shape" result="effect3_innerShadow_1_31"/>
<feColorMatrix in="SourceAlpha" type="matrix" values="0 0 0 0 0 0 0 0 0 0 0 0 0 0 0 0 0 0 127 0" result="hardAlpha"/>
<feOffset dx="-3" dy="6"/>
<feGaussianBlur stdDeviation="7.5"/>
<feComposite in2="hardAlpha" operator="arithmetic" k2="-1" k3="1"/>
<feColorMatrix type="matrix" values="0 0 0 0 0.0770313 0 0 0 0 0.6375 0 0 0 0 0.178935 0 0 0 0.09 0"/>
<feBlend mode="normal" in2="effect3_innerShadow_1_31" result="effect4_innerShadow_1_31"/>
</filter>
<filter id="filter8_bdii_1_31" x="104.897" y="14.793" width="99.9166" height="95.9166" filterUnits="userSpaceOnUse" color-interpolation-filters="sRGB">
<feFlood flood-opacity="0" result="BackgroundImageFix"/>
<feGaussianBlur in="BackgroundImageFix" stdDeviation="10"/>
<feComposite in2="SourceAlpha" operator="in" result="effect1_backgroundBlur_1_31"/>
<feColorMatrix in="SourceAlpha" type="matrix" values="0 0 0 0 0 0 0 0 0 0 0 0 0 0 0 0 0 0 127 0" result="hardAlpha"/>
<feOffset dx="9" dy="5"/>
<feGaussianBlur stdDeviation="10"/>
<feColorMatrix type="matrix" values="0 0 0 0 0.0690278 0 0 0 0 0.295833 0 0 0 0 0.11166 0 0 0 0.08 0"/>
<feBlend mode="normal" in2="effect1_backgroundBlur_1_31" result="effect2_dropShadow_1_31"/>
<feBlend mode="normal" in="SourceGraphic" in2="effect2_dropShadow_1_31" result="shape"/>
<feColorMatrix in="SourceAlpha" type="matrix" values="0 0 0 0 0 0 0 0 0 0 0 0 0 0 0 0 0 0 127 0" result="hardAlpha"/>
<feOffset dx="-10" dy="10"/>
<feGaussianBlur stdDeviation="5"/>
<feComposite in2="hardAlpha" operator="arithmetic" k2="-1" k3="1"/>
<feColorMatrix type="matrix" values="0 0 0 0 1 0 0 0 0 1 0 0 0 0 1 0 0 0 0.15 0"/>
<feBlend mode="normal" in2="shape" result="effect3_innerShadow_1_31"/>
<feColorMatrix in="SourceAlpha" type="matrix" values="0 0 0 0 0 0 0 0 0 0 0 0 0 0 0 0 0 0 127 0" result="hardAlpha"/>
<feOffset dx="3" dy="-6"/>
<feGaussianBlur stdDeviation="4.5"/>
<feComposite in2="hardAlpha" operator="arithmetic" k2="-1" k3="1"/>
<feColorMatrix type="matrix" values="0 0 0 0 0.0199306 0 0 0 0 0.341667 0 0 0 0 0.0521041 0 0 0 0.05 0"/>
<feBlend mode="normal" in2="effect3_innerShadow_1_31" result="effect4_innerShadow_1_31"/>
</filter>
<linearGradient id="paint0_linear_1_31" x1="195.533" y1="-3.81145e-06" x2="153.952" y2="186.899" gradientUnits="userSpaceOnUse">
<stop stop-color="#9BE15D"/>
<stop offset="1" stop-color="#00E3AE"/>
</linearGradient>
<linearGradient id="paint1_linear_1_31" x1="56.9683" y1="154.012" x2="51.1061" y2="180.369" gradientUnits="userSpaceOnUse">
<stop stop-color="#9BE15D"/>
<stop offset="1" stop-color="#00E3AE"/>
</linearGradient>
<linearGradient id="paint2_linear_1_31" x1="29.3428" y1="148.71" x2="24.2803" y2="171.491" gradientUnits="userSpaceOnUse">
<stop stop-color="#9BE15D"/>
<stop offset="1" stop-color="#00E3AE"/>
</linearGradient>
<linearGradient id="paint3_linear_1_31" x1="195.532" y1="-3.81145e-06" x2="153.952" y2="186.899" gradientUnits="userSpaceOnUse">
<stop stop-color="#9BE15D"/>
<stop offset="1" stop-color="#00E3AE"/>
</linearGradient>
<linearGradient id="paint4_linear_1_31" x1="148.604" y1="113.522" x2="133.058" y2="216.416" gradientUnits="userSpaceOnUse">
<stop stop-color="#9BE15D"/>
<stop offset="1" stop-color="#00E3AE"/>
</linearGradient>
<linearGradient id="paint5_linear_1_31" x1="102.955" y1="69.8388" x2="-0.268636" y2="83.0129" gradientUnits="userSpaceOnUse">
<stop stop-color="#9BE15D"/>
<stop offset="1" stop-color="#00E3AE"/>
</linearGradient>
<linearGradient id="paint6_linear_1_31" x1="56.9682" y1="154.012" x2="51.106" y2="180.369" gradientUnits="userSpaceOnUse">
<stop stop-color="#9BE15D"/>
<stop offset="1" stop-color="#00E3AE"/>
</linearGradient>
<linearGradient id="paint7_linear_1_31" x1="29.3428" y1="148.71" x2="24.2803" y2="171.491" gradientUnits="userSpaceOnUse">
<stop stop-color="#9BE15D"/>
<stop offset="1" stop-color="#00E3AE"/>
</linearGradient>
<linearGradient id="paint8_linear_1_31" x1="170.193" y1="34.793" x2="157.542" y2="91.6656" gradientUnits="userSpaceOnUse">
<stop stop-color="#9BE15D"/>
<stop offset="1" stop-color="#00E3AE"/>
</linearGradient>
</defs>
</svg>
