<svg width="512" height="355" viewBox="0 0 512 355" fill="none" xmlns="http://www.w3.org/2000/svg">
<path d="M294.506 111.267C304.266 110.55 314.302 111.012 324.09 111.019L341.26 111.038C370.421 111.101 381.642 120.762 391.854 147.073L397.808 162.833C402.072 174.462 403.855 178.458 414.35 185.709L427.098 194.15C449.096 208.516 449.277 217.904 449.252 243.579L449.23 253.842C449.155 272.214 434.558 287.614 416.502 290.268C415.998 294.55 415.334 298.917 413.956 303.016C399.842 345 335.698 336.601 333.834 289.914C330.922 289.51 327.954 289.611 325.019 289.605L270.783 289.596C271.156 288.141 271.234 286.544 271.418 285.099L289.79 140.801L294.506 111.267ZM330.272 143.58C326.119 145.057 321.889 148.115 319.926 152.172L319.611 152.821C317.273 157.622 318.52 169.289 318.517 174.822L318.524 185.425C318.561 203.534 328.66 202.154 343.881 202.174L371.764 202.235C385.337 200.132 383.541 190.391 380.108 180.475L375.842 168.197C373.861 162.31 372.48 155.712 369.612 150.202C364.887 141.129 355.352 143.485 346.766 143.479C341.323 143.476 335.68 143.148 330.272 143.58Z" fill="#2A4383"/>
<path d="M117.781 289.964L117.388 289.943C111.926 290.006 106.724 289.617 101.635 287.442L99.2577 286.397C68.1401 271.642 79.4891 236.188 83.6569 209.854L101.107 87.1896C103.275 75.1416 112.311 64.2304 124.002 60.2864L127.296 59.2576C129.765 58.5904 132.321 58.3192 134.868 58.2112L238.075 58.2648C246.842 58.2696 255.564 58.0544 264.287 59.06C285.056 61.4536 297.662 81.0328 294.667 101.106C294.179 104.374 291.388 110.227 294.507 111.267L289.792 140.801L271.42 285.099C271.235 286.544 271.158 288.141 270.785 289.545L203.411 289.556L202.159 297.54C194.859 324.621 165.575 339.156 140.544 325.727C139.674 325.26 138.719 324.814 137.996 324.131C137.13 323.984 135.414 322.503 134.675 321.931C123.932 313.607 119.446 303.086 117.781 289.964Z" fill="#C0CAE3"/>
<path d="M157.879 188.063L213.889 188.073C220.646 188.078 230.259 186.998 233.625 194.618C234.393 196.356 234.594 198.867 233.931 200.664L233.682 201.313C231.149 207.738 225.904 208.742 219.911 208.749L210.187 208.728L150.533 208.737C143.669 208.743 134.512 208.544 134.112 199C133.721 189.66 142.721 188.134 150.03 188.092L157.879 188.063Z" fill="#FEFEFE"/>
<path d="M238.398 144.546L248.781 144.455C250.654 144.438 252.947 144.214 254.768 144.682C260.65 146.195 264.467 153.002 262.639 158.844L262.504 159.25C257.942 173.393 241.638 165.854 230.861 165.562L161.812 165.493L149.322 165.498C147.11 165.496 144.696 165.694 142.522 165.279C133.579 163.57 130.497 150.949 139.025 146.262L139.624 145.942C143.742 143.478 150.323 144.555 154.922 144.555L238.398 144.546Z" fill="#FEFEFE"/>
<path d="M117.779 289.964V288.106C117.795 264.315 137.564 243.871 161.583 243.962C186.281 244.057 203.577 265.747 203.424 289.541L202.158 297.54C194.858 324.621 165.573 339.156 140.542 325.727C139.672 325.26 138.717 324.814 137.994 324.131C137.128 323.984 135.412 322.503 134.674 321.931C123.93 313.607 119.444 303.086 117.779 289.964Z" fill="url(#paint0_linear_3661_539)"/>
<defs>
<linearGradient id="paint0_linear_3661_539" x1="177.886" y1="326.719" x2="143.217" y2="248.065" gradientUnits="userSpaceOnUse">
<stop stop-color="#2A4383"/>
<stop offset="1" stop-color="#0486AF"/>
</linearGradient>
</defs>
</svg>
