<svg width="133" height="132" viewBox="0 0 133 132" fill="none" xmlns="http://www.w3.org/2000/svg">
<path fill-rule="evenodd" clip-rule="evenodd" d="M97.0585 42.6301C98.897 44.4611 98.903 47.4358 97.072 49.2743L57.4848 89.0224C55.6538 90.8608 52.6792 90.8669 50.8407 89.036L36.4035 74.6586C34.5649 72.8277 34.5587 69.853 36.3897 68.0144C38.2206 66.1758 41.1953 66.1696 43.0339 68.0006L54.1423 79.0629L90.4142 42.6436C92.2453 40.8051 95.22 40.799 97.0585 42.6301Z" fill="#269868"/>
<path fill-rule="evenodd" clip-rule="evenodd" d="M66.2263 13.4071C41.3223 13.4071 20.4297 30.7969 15.0667 54.0927L15.0666 54.0927C14.1936 57.8846 13.7314 61.8371 13.7314 65.9021C13.7314 94.8722 37.2561 118.397 66.2263 118.397C95.1964 118.397 118.721 94.8722 118.721 65.9021C118.721 36.9319 95.1964 13.4071 66.2263 13.4071ZM5.90979 51.9846C12.2323 24.521 36.8453 4.01074 66.2263 4.01074C100.386 4.01074 128.118 31.7424 128.118 65.9021C128.118 100.062 100.386 127.793 66.2263 127.793C32.0667 127.793 4.33496 100.062 4.33496 65.9021C4.33496 61.1224 4.87877 56.4628 5.90979 51.9846Z" fill="#BFEBD8"/>
</svg>
